<?xml version="1.0" encoding="utf-8"?>
<!-- Generator: Adobe Illustrator 26.3.1, SVG Export Plug-In . SVG Version: 6.00 Build 0)  -->
<svg version="1.1" id="Camada_1" xmlns="http://www.w3.org/2000/svg" xmlns:xlink="http://www.w3.org/1999/xlink" x="0px" y="0px"
	 viewBox="0 0 32 32" style="enable-background:new 0 0 32 32;" xml:space="preserve">
<style type="text/css">
	.st0{fill:none;}
	.st1{fill:url(#SVGID_1_);}
	.st2{fill:url(#SVGID_00000015337266649275590780000000760020855003629959_);}
	.st3{fill:url(#SVGID_00000008834558129140768750000001823185778160439987_);}
	.st4{fill:url(#SVGID_00000130640358564936645140000008064036704917889674_);}
	.st5{fill:url(#SVGID_00000136380051441624781520000000996443234436551297_);}
	.st6{fill:url(#SVGID_00000163792118117871809130000005863166195602008711_);}
	.st7{fill:url(#SVGID_00000005948387828134690180000003690277014251696547_);}
	.st8{fill:url(#SVGID_00000126312847879648944280000018219610197317312953_);}
	.st9{fill:url(#SVGID_00000170986309710812199050000000639778984315483292_);}
	.st10{fill:url(#SVGID_00000106123592074768863220000003800391997459845763_);}
	.st11{fill:url(#SVGID_00000088095389207572990930000002090610366531254686_);}
	.st12{fill:url(#SVGID_00000119116644008542577330000002906274467324905663_);}
	.st13{fill:url(#SVGID_00000155859203676932145310000011529696429401037495_);}
	.st14{fill:url(#SVGID_00000039815886372420521620000014699994252817984658_);}
	.st15{fill:url(#SVGID_00000131333323031491491930000001975636950899917746_);}
	.st16{fill:url(#SVGID_00000054952875840894566970000014860711365593500347_);}
	.st17{fill:url(#SVGID_00000064341978893403444580000010593897610727660721_);}
	.st18{fill:url(#SVGID_00000002364059125580212850000004995894604297592967_);}
	.st19{fill:url(#SVGID_00000078026872691413238700000017172535611320463760_);}
	.st20{fill:url(#SVGID_00000022562271453578147500000012877870005547493010_);}
	.st21{fill:url(#SVGID_00000019636940425039647350000011574759865841666229_);}
	.st22{fill:url(#SVGID_00000093870591504715877910000010213658565257322910_);}
	.st23{fill:url(#SVGID_00000064344337740651095520000008402512340155552170_);}
</style>
<g>
	<g id="BACKGROUND">
	</g>
	<g>
		<path class="st0" d="M8.4,23.8c0,1.1-0.4,2-0.7,2.7c0.5-0.7,0.7-1.4,0.7-2.5V23.8z"/>
		<path class="st0" d="M0.7,9c0-1.4,0.4-2.7,1.1-3.6C1,6.2,0.7,7.3,0.7,8.8V9z"/>
		<path class="st0" d="M17.1,5.9h-2.7v14.3h2.5c0.7,0,1.4-0.4,2-0.9c0.5-0.5,0.9-1.3,0.9-2.4V8.8c0-0.9-0.2-1.8-0.7-2.2
			C18.6,6.1,18,5.9,17.1,5.9z"/>
		<linearGradient id="SVGID_1_" gradientUnits="userSpaceOnUse" x1="0.12" y1="17.9977" x2="21.4781" y2="17.9977">
			<stop  offset="0" style="stop-color:#C20E1A"/>
			<stop  offset="0.1453" style="stop-color:#CD591C"/>
			<stop  offset="0.3073" style="stop-color:#FFED00"/>
			<stop  offset="0.5" style="stop-color:#289548"/>
			<stop  offset="0.6816" style="stop-color:#009DE0"/>
			<stop  offset="0.8547" style="stop-color:#322B80"/>
			<stop  offset="1" style="stop-color:#5D2857"/>
		</linearGradient>
		<path class="st1" d="M7.9,20.7C7.7,20.3,7.4,20,7,19.8s-0.9-0.5-1.8-1.1c-1.1-0.5-1.8-1.1-2.4-1.4c-0.5-0.4-1.1-0.9-1.4-1.4
			c-0.4-0.7-0.7-1.4-0.7-2.2v0.2c0,0.9,0.4,1.6,0.9,2.4c0.4,0.5,0.9,1.1,1.4,1.4c0.5,0.4,1.3,0.9,2.4,1.4c0.9,0.5,1.4,0.9,1.8,1.1
			c0.4,0.2,0.5,0.5,0.9,0.9c0.2,0.4,0.4,0.7,0.4,1.3v-0.2C8.4,21.6,8.3,21.1,7.9,20.7z"/>
		
			<linearGradient id="SVGID_00000158714591193694173550000005012845470210310059_" gradientUnits="userSpaceOnUse" x1="0.12" y1="17.9977" x2="21.4781" y2="17.9977">
			<stop  offset="0" style="stop-color:#C20E1A"/>
			<stop  offset="0.1453" style="stop-color:#CD591C"/>
			<stop  offset="0.3073" style="stop-color:#FFED00"/>
			<stop  offset="0.5" style="stop-color:#289548"/>
			<stop  offset="0.6816" style="stop-color:#009DE0"/>
			<stop  offset="0.8547" style="stop-color:#322B80"/>
			<stop  offset="1" style="stop-color:#5D2857"/>
		</linearGradient>
		<path style="fill:url(#SVGID_00000158714591193694173550000005012845470210310059_);" d="M7.9,20.7C7.7,20.3,7.4,20,7,19.8
			s-0.9-0.5-1.8-1.1c-1.1-0.5-1.8-1.1-2.4-1.4c-0.5-0.4-1.1-0.9-1.4-1.4c-0.4-0.7-0.7-1.4-0.7-2.2v0.2c0,0.9,0.4,1.6,0.9,2.4
			c0.4,0.5,0.9,1.1,1.4,1.4c0.5,0.4,1.3,0.9,2.4,1.4c0.9,0.5,1.4,0.9,1.8,1.1c0.4,0.2,0.5,0.5,0.9,0.9c0.2,0.4,0.4,0.7,0.4,1.3v-0.2
			C8.4,21.6,8.3,21.1,7.9,20.7z"/>
		
			<linearGradient id="SVGID_00000088121314482130748240000005013704398569463936_" gradientUnits="userSpaceOnUse" x1="0.12" y1="16.5507" x2="21.4781" y2="16.5507">
			<stop  offset="0" style="stop-color:#C20E1A"/>
			<stop  offset="0.1453" style="stop-color:#CD591C"/>
			<stop  offset="0.3073" style="stop-color:#FFED00"/>
			<stop  offset="0.5" style="stop-color:#289548"/>
			<stop  offset="0.6816" style="stop-color:#009DE0"/>
			<stop  offset="0.8547" style="stop-color:#322B80"/>
			<stop  offset="1" style="stop-color:#5D2857"/>
		</linearGradient>
		<path style="fill:url(#SVGID_00000088121314482130748240000005013704398569463936_);" d="M9.7,19.8c-0.5-0.5-1.3-1.3-2.4-1.8
			c-0.9-0.5-1.6-0.9-1.8-1.1c-0.9-0.5-1.6-0.9-2.2-1.4c-0.4-0.4-0.7-0.9-0.7-1.6V9c0-1.1,0.4-1.8,0.7-2.4c0.5-0.5,1.1-0.7,1.8-0.7
			c0.9,0,1.4,0.4,1.8,0.9c0.4,0.7,0.5,1.4,0.5,2.4v3.4h2.4V9.1c0-1.6-0.5-2.9-1.3-3.8c-0.9-0.9-2-1.4-3.4-1.4
			c-1.6,0-2.9,0.4-3.6,1.4C0.7,6.2,0.3,7.5,0.3,9.1V14c0.2,0.9,0.4,1.6,0.9,2.4c0.5,0.5,1.1,1.1,1.6,1.4c0.5,0.4,1.3,0.9,2.4,1.4
			c0.9,0.5,1.4,0.9,1.8,1.1c0.4,0.2,0.7,0.4,0.9,0.7c0.2,0.2,0.4,0.7,0.4,1.1v1.6c0,0.9-0.2,1.8-0.7,2.4S6.4,27,5.5,27
			s-1.6-0.2-2.2-0.9c-0.5-0.5-0.7-1.4-0.7-2.4v-2.7H0.3v2.7c0,1.6,0.5,2.9,1.4,4c1.1,0.9,2.4,1.4,3.8,1.4c1.6,0,2.7-0.5,3.6-1.4
			c0.9-0.9,1.3-2.2,1.3-3.8v-1.8C10.4,21.3,10.2,20.5,9.7,19.8z M0.7,8.8c0-1.4,0.4-2.5,1.1-3.4C1,6.2,0.7,7.5,0.7,9V8.8z"/>
		
			<linearGradient id="SVGID_00000081642927545967967270000009305677625348778918_" gradientUnits="userSpaceOnUse" x1="0.12" y1="16.2793" x2="21.4781" y2="16.2793">
			<stop  offset="0" style="stop-color:#C20E1A"/>
			<stop  offset="0.1453" style="stop-color:#CD591C"/>
			<stop  offset="0.3073" style="stop-color:#FFED00"/>
			<stop  offset="0.5" style="stop-color:#289548"/>
			<stop  offset="0.6816" style="stop-color:#009DE0"/>
			<stop  offset="0.8547" style="stop-color:#322B80"/>
			<stop  offset="1" style="stop-color:#5D2857"/>
		</linearGradient>
		<path style="fill:url(#SVGID_00000081642927545967967270000009305677625348778918_);" d="M16.9,4.1h-4.5v24.4h1.4v-6.7h3.1
			c0.9,0,1.8-0.2,2.4-0.7c0.7-0.5,1.3-1.1,1.6-1.8c0.4-0.7,0.5-1.4,0.5-2.4V8.8c0-1.6-0.5-2.7-1.3-3.6C19.3,4.4,18.2,4.1,16.9,4.1z
			 M20.2,16.9c0,1.1-0.4,2-0.9,2.5c-0.7,0.7-1.4,1.1-2.4,1.1h-3.3V5.3h3.3c1.1,0,1.8,0.4,2.4,0.9s0.9,1.4,0.9,2.5V16.9z"/>
		
			<linearGradient id="SVGID_00000065776519022474536940000009378440420217712054_" gradientUnits="userSpaceOnUse" x1="0.12" y1="16.1889" x2="21.4781" y2="16.1889">
			<stop  offset="0" style="stop-color:#C20E1A"/>
			<stop  offset="0.1453" style="stop-color:#CD591C"/>
			<stop  offset="0.3073" style="stop-color:#FFED00"/>
			<stop  offset="0.5" style="stop-color:#289548"/>
			<stop  offset="0.6816" style="stop-color:#009DE0"/>
			<stop  offset="0.8547" style="stop-color:#322B80"/>
			<stop  offset="1" style="stop-color:#5D2857"/>
		</linearGradient>
		<path style="fill:url(#SVGID_00000065776519022474536940000009378440420217712054_);" d="M20.6,4.8c-1.1-0.9-2.4-1.3-3.6-1.3h-5.1
			v25.3h2.4v-6.7h2.7c1.1,0,2-0.2,2.7-0.7c0.9-0.5,1.4-1.3,1.8-2c0.4-0.7,0.5-1.6,0.5-2.5V8.8C22,7,21.6,5.7,20.6,4.8z M21.8,17.1
			c0,0.7-0.4,1.6-0.7,2.4c-0.4,0.7-0.9,1.4-1.6,1.8c-0.7,0.5-1.6,0.7-2.5,0.7H14v6.7h-1.8V3.9h4.7c1.3,0,2.4,0.4,3.4,1.3
			c0.9,0.7,1.4,2,1.4,3.8V17.1z"/>
		
			<linearGradient id="SVGID_00000016041922392046273740000003887238575531563437_" gradientUnits="userSpaceOnUse" x1="0.12" y1="12.9331" x2="21.4781" y2="12.9331">
			<stop  offset="0" style="stop-color:#C20E1A"/>
			<stop  offset="0.1453" style="stop-color:#CD591C"/>
			<stop  offset="0.3073" style="stop-color:#FFED00"/>
			<stop  offset="0.5" style="stop-color:#289548"/>
			<stop  offset="0.6816" style="stop-color:#009DE0"/>
			<stop  offset="0.8547" style="stop-color:#322B80"/>
			<stop  offset="1" style="stop-color:#5D2857"/>
		</linearGradient>
		<path style="fill:url(#SVGID_00000016041922392046273740000003887238575531563437_);" d="M16.9,5.5H14v14.8h2.9
			c0.7,0,1.4-0.4,2.2-0.9c0.5-0.5,0.9-1.4,0.9-2.4V9c0-1.1-0.4-2-0.9-2.5C18.6,5.9,17.8,5.5,16.9,5.5z M19.8,16.9
			c0,1.1-0.4,1.8-0.9,2.4c-0.5,0.5-1.3,0.9-2,0.9h-2.5h-0.2h0.2V5.9h2.7c0.9,0,1.4,0.2,2,0.7c0.5,0.4,0.7,1.3,0.7,2.2V16.9z"/>
		
			<linearGradient id="SVGID_00000113344736566170744690000002355690696053545107_" gradientUnits="userSpaceOnUse" x1="0.12" y1="12.9332" x2="21.4781" y2="12.9332">
			<stop  offset="0" style="stop-color:#C20E1A"/>
			<stop  offset="0.1453" style="stop-color:#CD591C"/>
			<stop  offset="0.3073" style="stop-color:#FFED00"/>
			<stop  offset="0.5" style="stop-color:#289548"/>
			<stop  offset="0.6816" style="stop-color:#009DE0"/>
			<stop  offset="0.8547" style="stop-color:#322B80"/>
			<stop  offset="1" style="stop-color:#5D2857"/>
		</linearGradient>
		<path style="fill:url(#SVGID_00000113344736566170744690000002355690696053545107_);" d="M16.9,5.3h-3.3v15.2h3.3
			c0.9,0,1.6-0.4,2.4-1.1c0.5-0.5,0.9-1.4,0.9-2.5V8.8c0-1.1-0.4-2-0.9-2.5S18,5.3,16.9,5.3z M20,17.1c0,0.9-0.4,1.8-0.9,2.4
			c-0.7,0.5-1.4,0.9-2.2,0.9H14V5.5h2.9c0.9,0,1.6,0.4,2.2,0.9C19.7,7,20,7.9,20,9V17.1z"/>
		
			<linearGradient id="SVGID_00000074423927857300186730000008328127372008942754_" gradientUnits="userSpaceOnUse" x1="0.12" y1="12.9332" x2="21.4781" y2="12.9332">
			<stop  offset="0" style="stop-color:#C20E1A"/>
			<stop  offset="0.1453" style="stop-color:#CD591C"/>
			<stop  offset="0.3073" style="stop-color:#FFED00"/>
			<stop  offset="0.5" style="stop-color:#289548"/>
			<stop  offset="0.6816" style="stop-color:#009DE0"/>
			<stop  offset="0.8547" style="stop-color:#322B80"/>
			<stop  offset="1" style="stop-color:#5D2857"/>
		</linearGradient>
		<path style="fill:url(#SVGID_00000074423927857300186730000008328127372008942754_);" d="M16.9,5.3h-3.3v15.2h3.3
			c0.9,0,1.6-0.4,2.4-1.1c0.5-0.5,0.9-1.4,0.9-2.5V8.8c0-1.1-0.4-2-0.9-2.5S18,5.3,16.9,5.3z M20,17.1c0,0.9-0.4,1.8-0.9,2.4
			c-0.7,0.5-1.4,0.9-2.2,0.9H14V5.5h2.9c0.9,0,1.6,0.4,2.2,0.9C19.7,7,20,7.9,20,9V17.1z"/>
		
			<linearGradient id="SVGID_00000157283339951608353540000005584453609218940583_" gradientUnits="userSpaceOnUse" x1="0.12" y1="16.2794" x2="21.4781" y2="16.2794">
			<stop  offset="0" style="stop-color:#C20E1A"/>
			<stop  offset="0.1453" style="stop-color:#CD591C"/>
			<stop  offset="0.3073" style="stop-color:#FFED00"/>
			<stop  offset="0.5" style="stop-color:#289548"/>
			<stop  offset="0.6816" style="stop-color:#009DE0"/>
			<stop  offset="0.8547" style="stop-color:#322B80"/>
			<stop  offset="1" style="stop-color:#5D2857"/>
		</linearGradient>
		<path style="fill:url(#SVGID_00000157283339951608353540000005584453609218940583_);" d="M16.9,3.9h-4.7v24.8H14V22h2.9
			c0.9,0,1.8-0.2,2.5-0.7c0.7-0.4,1.3-1.1,1.6-1.8c0.4-0.7,0.7-1.6,0.7-2.4V9c0-1.8-0.5-3.1-1.4-3.8C19.3,4.3,18.2,3.9,16.9,3.9z
			 M21.5,16.9c0,0.9-0.2,1.6-0.5,2.4c-0.4,0.7-0.9,1.3-1.6,1.8c-0.5,0.5-1.4,0.7-2.4,0.7h-3.1v6.7h-1.4V4.1h4.5
			c1.3,0,2.4,0.4,3.3,1.1c0.7,0.9,1.3,2,1.3,3.6V16.9z"/>
		
			<linearGradient id="SVGID_00000101072195384478729300000010571589841186998955_" gradientUnits="userSpaceOnUse" x1="0.12" y1="16.2794" x2="21.4781" y2="16.2794">
			<stop  offset="0" style="stop-color:#C20E1A"/>
			<stop  offset="0.1453" style="stop-color:#CD591C"/>
			<stop  offset="0.3073" style="stop-color:#FFED00"/>
			<stop  offset="0.5" style="stop-color:#289548"/>
			<stop  offset="0.6816" style="stop-color:#009DE0"/>
			<stop  offset="0.8547" style="stop-color:#322B80"/>
			<stop  offset="1" style="stop-color:#5D2857"/>
		</linearGradient>
		<path style="fill:url(#SVGID_00000101072195384478729300000010571589841186998955_);" d="M16.9,3.9h-4.7v24.8H14V22h2.9
			c0.9,0,1.8-0.2,2.5-0.7c0.7-0.4,1.3-1.1,1.6-1.8c0.4-0.7,0.7-1.6,0.7-2.4V9c0-1.8-0.5-3.1-1.4-3.8C19.3,4.3,18.2,3.9,16.9,3.9z
			 M21.5,16.9c0,0.9-0.2,1.6-0.5,2.4c-0.4,0.7-0.9,1.3-1.6,1.8c-0.5,0.5-1.4,0.7-2.4,0.7h-3.1v6.7h-1.4V4.1h4.5
			c1.3,0,2.4,0.4,3.3,1.1c0.7,0.9,1.3,2,1.3,3.6V16.9z"/>
	</g>
	<g>
		<polygon class="st0" points="28.9,25.8 29.8,25.8 29.6,24.5 29.5,23 29.4,22.5 29.2,24.5 		"/>
		<polygon class="st0" points="29.3,21.5 29.3,21.8 29.3,21.5 		"/>
		<g>
			
				<linearGradient id="SVGID_00000093885636474564110890000017064908298585346177_" gradientUnits="userSpaceOnUse" x1="15.24" y1="23.2303" x2="30.9537" y2="23.2303">
				<stop  offset="0" style="stop-color:#C20E1A"/>
				<stop  offset="0.1453" style="stop-color:#CD591C"/>
				<stop  offset="0.3073" style="stop-color:#FFED00"/>
				<stop  offset="0.5" style="stop-color:#289548"/>
				<stop  offset="0.6816" style="stop-color:#009DE0"/>
				<stop  offset="0.8547" style="stop-color:#322B80"/>
				<stop  offset="1" style="stop-color:#5D2857"/>
			</linearGradient>
			<path style="fill:url(#SVGID_00000093885636474564110890000017064908298585346177_);" d="M17.2,25.9h1.7v0.8
				c0,0.5-0.1,0.8-0.3,1.2c-0.3,0.3-0.5,0.3-0.9,0.3c-0.4,0-0.7-0.2-0.9-0.4c-0.3-0.3-0.3-0.6-0.3-1.1v-6.9c0-0.4,0.1-0.8,0.3-1.1
				c0.3-0.3,0.5-0.4,0.9-0.4c0.4,0,0.8,0.2,0.9,0.4c0.3,0.3,0.3,0.7,0.3,1.1V21H19h0.8v-1.1v-0.1c0-0.8-0.2-1.3-0.6-1.9
				c-0.4-0.4-0.9-0.7-1.7-0.7c-0.7,0-1.3,0.3-1.7,0.8c-0.4,0.5-0.7,1.1-0.7,1.9v6.8c0,0.8,0.3,1.4,0.7,1.9c0.4,0.4,1,0.7,1.8,0.7
				c0.8,0,1.3-0.3,1.8-0.8c0.4-0.4,0.6-1,0.6-1.8v-1.8h-2.8V25.9z"/>
			
				<linearGradient id="SVGID_00000023257868969796692080000007228069247671354013_" gradientUnits="userSpaceOnUse" x1="15.24" y1="24.4519" x2="30.9537" y2="24.4519">
				<stop  offset="0" style="stop-color:#C20E1A"/>
				<stop  offset="0.1453" style="stop-color:#CD591C"/>
				<stop  offset="0.3073" style="stop-color:#FFED00"/>
				<stop  offset="0.5" style="stop-color:#289548"/>
				<stop  offset="0.6816" style="stop-color:#009DE0"/>
				<stop  offset="0.8547" style="stop-color:#322B80"/>
				<stop  offset="1" style="stop-color:#5D2857"/>
			</linearGradient>
			<path style="fill:url(#SVGID_00000023257868969796692080000007228069247671354013_);" d="M23.8,19.7L23.8,19.7l-0.1,7.4
				c0,0.6-0.2,0.9-0.5,1c-0.1,0-0.3,0.1-0.4,0.1c-0.3,0-0.4-0.2-0.6-0.3c-0.2-0.2-0.3-0.4-0.3-0.8v-7.4h-0.2h-0.8h-0.1v7.4
				c0,0.6,0.2,1.1,0.5,1.5c0.3,0.4,0.8,0.6,1.4,0.6c0.7,0,1.1-0.3,1.5-0.6c0.3-0.4,0.5-0.9,0.5-1.5v-7.4h-0.2H23.8z"/>
			
				<linearGradient id="SVGID_00000173882137944551259740000015584266964966148010_" gradientUnits="userSpaceOnUse" x1="15.24" y1="24.3255" x2="30.9537" y2="24.3255">
				<stop  offset="0" style="stop-color:#C20E1A"/>
				<stop  offset="0.1453" style="stop-color:#CD591C"/>
				<stop  offset="0.3073" style="stop-color:#FFED00"/>
				<stop  offset="0.5" style="stop-color:#289548"/>
				<stop  offset="0.6816" style="stop-color:#009DE0"/>
				<stop  offset="0.8547" style="stop-color:#322B80"/>
				<stop  offset="1" style="stop-color:#5D2857"/>
			</linearGradient>
			
				<rect x="25.6" y="19.6" style="fill:url(#SVGID_00000173882137944551259740000015584266964966148010_);" width="1.1" height="9.4"/>
		</g>
		
			<linearGradient id="SVGID_00000101808632374673551780000004609526492812420518_" gradientUnits="userSpaceOnUse" x1="15.24" y1="22.725" x2="30.9537" y2="22.725">
			<stop  offset="0" style="stop-color:#C20E1A"/>
			<stop  offset="0.1453" style="stop-color:#CD591C"/>
			<stop  offset="0.3073" style="stop-color:#FFED00"/>
			<stop  offset="0.5" style="stop-color:#289548"/>
			<stop  offset="0.6816" style="stop-color:#009DE0"/>
			<stop  offset="0.8547" style="stop-color:#322B80"/>
			<stop  offset="1" style="stop-color:#5D2857"/>
		</linearGradient>
		<polygon style="fill:url(#SVGID_00000101808632374673551780000004609526492812420518_);" points="29.4,22.5 29.4,22.5 29.5,23 		
			"/>
		
			<linearGradient id="SVGID_00000013181739819964045020000003647445900612147606_" gradientUnits="userSpaceOnUse" x1="15.24" y1="27.1509" x2="30.9537" y2="27.1509">
			<stop  offset="0" style="stop-color:#C20E1A"/>
			<stop  offset="0.1453" style="stop-color:#CD591C"/>
			<stop  offset="0.3073" style="stop-color:#FFED00"/>
			<stop  offset="0.5" style="stop-color:#289548"/>
			<stop  offset="0.6816" style="stop-color:#009DE0"/>
			<stop  offset="0.8547" style="stop-color:#322B80"/>
			<stop  offset="1" style="stop-color:#5D2857"/>
		</linearGradient>
		<polygon style="fill:url(#SVGID_00000013181739819964045020000003647445900612147606_);" points="30,26.7 30.1,27.6 30,26.7 		"/>
		
			<linearGradient id="SVGID_00000025429104604785170000000017219532023819895442_" gradientUnits="userSpaceOnUse" x1="15.24" y1="24.3676" x2="30.9537" y2="24.3676">
			<stop  offset="0" style="stop-color:#C20E1A"/>
			<stop  offset="0.1453" style="stop-color:#CD591C"/>
			<stop  offset="0.3073" style="stop-color:#FFED00"/>
			<stop  offset="0.5" style="stop-color:#289548"/>
			<stop  offset="0.6816" style="stop-color:#009DE0"/>
			<stop  offset="0.8547" style="stop-color:#322B80"/>
			<stop  offset="1" style="stop-color:#5D2857"/>
		</linearGradient>
		<path style="fill:url(#SVGID_00000025429104604785170000000017219532023819895442_);" d="M28.2,28.9l0.3-2.4h1.4v0.1H30l0.5,2.4
			h0.6l-1.4-9h-0.8l-1.3,9H28.2z M28.9,24.4l0.3-2.6l0-0.3l0,0l0.1-0.9l0.5,3.9l0.2,1.5h-1.4L28.9,24.4z"/>
		
			<linearGradient id="SVGID_00000181070928887405848610000002853210713956525193_" gradientUnits="userSpaceOnUse" x1="15.24" y1="23.663" x2="30.9537" y2="23.663">
			<stop  offset="0" style="stop-color:#C20E1A"/>
			<stop  offset="0.1453" style="stop-color:#CD591C"/>
			<stop  offset="0.3073" style="stop-color:#FFED00"/>
			<stop  offset="0.5" style="stop-color:#289548"/>
			<stop  offset="0.6816" style="stop-color:#009DE0"/>
			<stop  offset="0.8547" style="stop-color:#322B80"/>
			<stop  offset="1" style="stop-color:#5D2857"/>
		</linearGradient>
		<polygon style="fill:url(#SVGID_00000181070928887405848610000002853210713956525193_);" points="28.7,25.8 29.9,25.8 29.6,24.5 
			29.5,23 29.6,24.5 29.8,25.8 28.9,25.8 29.2,24.5 29.4,22.5 29.3,21.5 29.3,21.8 29,24.4 		"/>
		
			<linearGradient id="SVGID_00000053509253391978688730000009695124934233043614_" gradientUnits="userSpaceOnUse" x1="15.24" y1="28.3304" x2="30.9537" y2="28.3304">
			<stop  offset="0" style="stop-color:#C20E1A"/>
			<stop  offset="0.1453" style="stop-color:#CD591C"/>
			<stop  offset="0.3073" style="stop-color:#FFED00"/>
			<stop  offset="0.5" style="stop-color:#289548"/>
			<stop  offset="0.6816" style="stop-color:#009DE0"/>
			<stop  offset="0.8547" style="stop-color:#322B80"/>
			<stop  offset="1" style="stop-color:#5D2857"/>
		</linearGradient>
		<polygon style="fill:url(#SVGID_00000053509253391978688730000009695124934233043614_);" points="30.3,29 30.4,29 30.1,27.6 		"/>
		
			<linearGradient id="SVGID_00000101095063071919884450000017850002099728011926_" gradientUnits="userSpaceOnUse" x1="15.24" y1="24.4098" x2="30.9537" y2="24.4098">
			<stop  offset="0" style="stop-color:#C20E1A"/>
			<stop  offset="0.1453" style="stop-color:#CD591C"/>
			<stop  offset="0.3073" style="stop-color:#FFED00"/>
			<stop  offset="0.5" style="stop-color:#289548"/>
			<stop  offset="0.6816" style="stop-color:#009DE0"/>
			<stop  offset="0.8547" style="stop-color:#322B80"/>
			<stop  offset="1" style="stop-color:#5D2857"/>
		</linearGradient>
		<polygon style="fill:url(#SVGID_00000101095063071919884450000017850002099728011926_);" points="28.8,19.7 27.4,29.1 28.5,29.1 
			28.8,26.7 30,26.7 30,26.6 28.6,26.6 28.3,29 27.4,29 28.9,19.9 28.9,19.9 29.7,19.9 29.8,19.9 31.2,29 31.4,29 30,19.7 		"/>
		
			<linearGradient id="SVGID_00000140699828826417915900000004968552036269558942_" gradientUnits="userSpaceOnUse" x1="15.24" y1="24.4519" x2="30.9537" y2="24.4519">
			<stop  offset="0" style="stop-color:#C20E1A"/>
			<stop  offset="0.1453" style="stop-color:#CD591C"/>
			<stop  offset="0.3073" style="stop-color:#FFED00"/>
			<stop  offset="0.5" style="stop-color:#289548"/>
			<stop  offset="0.6816" style="stop-color:#009DE0"/>
			<stop  offset="0.8547" style="stop-color:#322B80"/>
			<stop  offset="1" style="stop-color:#5D2857"/>
		</linearGradient>
		<polygon style="fill:url(#SVGID_00000140699828826417915900000004968552036269558942_);" points="29.7,19.9 31.1,28.9 30.5,28.9 
			30,26.5 29.9,26.5 29.9,26.4 28.5,26.4 28.2,28.9 27.6,28.9 28.9,19.9 28.9,19.9 27.4,29 28.3,29 28.6,26.6 30,26.6 30,26.7 
			30,26.7 30.1,27.6 30.4,29 31.2,29 29.8,19.9 		"/>
		
			<linearGradient id="SVGID_00000004514180683991153010000013836010956271108481_" gradientUnits="userSpaceOnUse" x1="15.24" y1="24.4519" x2="30.9537" y2="24.4519">
			<stop  offset="0" style="stop-color:#C20E1A"/>
			<stop  offset="0.1453" style="stop-color:#CD591C"/>
			<stop  offset="0.3073" style="stop-color:#FFED00"/>
			<stop  offset="0.5" style="stop-color:#289548"/>
			<stop  offset="0.6816" style="stop-color:#009DE0"/>
			<stop  offset="0.8547" style="stop-color:#322B80"/>
			<stop  offset="1" style="stop-color:#5D2857"/>
		</linearGradient>
		<polygon style="fill:url(#SVGID_00000004514180683991153010000013836010956271108481_);" points="29.7,19.9 31.1,28.9 30.5,28.9 
			30,26.5 29.9,26.5 29.9,26.4 28.5,26.4 28.2,28.9 27.6,28.9 28.9,19.9 28.9,19.9 27.4,29 28.3,29 28.6,26.6 30,26.6 30,26.7 
			30,26.7 30.1,27.6 30.4,29 31.2,29 29.8,19.9 		"/>
		
			<linearGradient id="SVGID_00000132807906919017481470000016973202295734783616_" gradientUnits="userSpaceOnUse" x1="15.24" y1="23.2303" x2="30.9537" y2="23.2303">
			<stop  offset="0" style="stop-color:#C20E1A"/>
			<stop  offset="0.1453" style="stop-color:#CD591C"/>
			<stop  offset="0.3073" style="stop-color:#FFED00"/>
			<stop  offset="0.5" style="stop-color:#289548"/>
			<stop  offset="0.6816" style="stop-color:#009DE0"/>
			<stop  offset="0.8547" style="stop-color:#322B80"/>
			<stop  offset="1" style="stop-color:#5D2857"/>
		</linearGradient>
		<polygon style="fill:url(#SVGID_00000132807906919017481470000016973202295734783616_);" points="29.9,24.4 29.4,20.5 29.3,21.5 
			29.4,22.5 29.4,22.5 29.5,23 29.6,24.5 29.9,25.8 28.7,25.8 29,24.4 29.3,21.8 28.9,24.4 28.7,25.9 30.1,25.9 		"/>
		
			<linearGradient id="SVGID_00000183212981640179856460000017026007367331298237_" gradientUnits="userSpaceOnUse" x1="15.24" y1="23.2303" x2="30.9537" y2="23.2303">
			<stop  offset="0" style="stop-color:#C20E1A"/>
			<stop  offset="0.1453" style="stop-color:#CD591C"/>
			<stop  offset="0.3073" style="stop-color:#FFED00"/>
			<stop  offset="0.5" style="stop-color:#289548"/>
			<stop  offset="0.6816" style="stop-color:#009DE0"/>
			<stop  offset="0.8547" style="stop-color:#322B80"/>
			<stop  offset="1" style="stop-color:#5D2857"/>
		</linearGradient>
		<polygon style="fill:url(#SVGID_00000183212981640179856460000017026007367331298237_);" points="29.9,24.4 29.4,20.5 29.3,21.5 
			29.4,22.5 29.4,22.5 29.5,23 29.6,24.5 29.9,25.8 28.7,25.8 29,24.4 29.3,21.8 28.9,24.4 28.7,25.9 30.1,25.9 		"/>
	</g>
</g>
</svg>
