<?xml version="1.0" encoding="utf-8"?>
<!-- Generator: Adobe Illustrator 26.3.1, SVG Export Plug-In . SVG Version: 6.00 Build 0)  -->
<svg version="1.1" xmlns="http://www.w3.org/2000/svg" xmlns:xlink="http://www.w3.org/1999/xlink" x="0px" y="0px"
	 viewBox="0 0 100 37" style="enable-background:new 0 0 100 37;" xml:space="preserve">
<style type="text/css">
	.st0{fill:url(#SVGID_1_);}
	.st1{fill:url(#SVGID_00000179607576313665880360000004051189488431845776_);}
	.st2{fill:url(#SVGID_00000071519372423460944840000014539092994423288452_);}
	.st3{fill:url(#SVGID_00000129179393952967389680000011321338000749755539_);}
	.st4{fill:url(#SVGID_00000044136697325338263060000003836265624047536786_);}
	.st5{fill:url(#SVGID_00000006665383966896078460000009609637136649421714_);}
	.st6{fill:url(#SVGID_00000059306470082281736850000016743730408072677053_);}
	.st7{fill:url(#SVGID_00000096739570650418452040000007629926024698952381_);}
	.st8{fill:url(#SVGID_00000053539095716852049150000016268453232668743858_);}
	.st9{fill:url(#SVGID_00000064345515062442930360000010605693460249866410_);}
	.st10{fill:url(#SVGID_00000138566811593325559940000010055673967589823131_);}
	.st11{fill:url(#SVGID_00000147905533034178097420000009089838475584288949_);}
	.st12{fill:url(#SVGID_00000055669856751339798650000008184598757187391929_);}
	.st13{fill:url(#SVGID_00000137103667022963160340000010302911455617811113_);}
	.st14{fill:url(#SVGID_00000016035735293849283560000003321122893492742828_);}
	.st15{fill:url(#SVGID_00000172430785448793893970000015159681147575216292_);}
	.st16{fill:url(#SVGID_00000113345413527397453780000017311570734436887220_);}
	.st17{fill:url(#SVGID_00000015314903958758026540000005804209355127474622_);}
	.st18{fill:url(#SVGID_00000093171425046793795380000013895596571193015178_);}
	.st19{fill:url(#SVGID_00000071517301217148078720000005097075424308723899_);}
	.st20{fill:url(#SVGID_00000107551819701439577670000014203548153212730766_);}
	.st21{fill:url(#SVGID_00000093175460536511426090000013180259173285291411_);}
	.st22{fill:url(#SVGID_00000163063066248134629110000011945884273123705500_);}
	.st23{fill:url(#SVGID_00000086690572194281114590000009938119547133272709_);}
	.st24{fill:url(#SVGID_00000122697296174861520510000014700649162081827720_);}
	.st25{fill:url(#SVGID_00000155857152351556412990000007135482068479221900_);}
	.st26{fill:url(#SVGID_00000124137532194343493620000001245958283635891371_);}
	.st27{fill:url(#SVGID_00000090283139456716401420000003119786560976393401_);}
	.st28{fill:url(#SVGID_00000124842459351194368360000003259146297019957125_);}
	.st29{fill:url(#SVGID_00000155854223790433439790000005708933889689305217_);}
	.st30{fill:url(#SVGID_00000157271859259759902780000000349766351751803795_);}
	.st31{fill:url(#SVGID_00000067945339464049147470000005282303477173083830_);}
	.st32{fill:url(#SVGID_00000084508377539273371730000008544789369767318426_);}
	.st33{fill:url(#SVGID_00000016757924973093781040000014710646017641282735_);}
	.st34{fill:url(#SVGID_00000130646305892812472540000007053175972263330730_);}
	.st35{fill:url(#SVGID_00000062186233232911328400000007849143693622991012_);}
	.st36{fill:url(#SVGID_00000083811884386833382970000008113303107986540195_);}
	.st37{fill:url(#SVGID_00000125598422683484577520000016070727413706192005_);}
	.st38{fill:url(#SVGID_00000080181164543036607750000016659850797229851306_);}
	.st39{fill:url(#SVGID_00000156545780504616786600000003182386249897226882_);}
	.st40{fill:#B1B1B0;}
	.st41{fill:#585857;}
</style>
<g id="BACKGROUND">
</g>
<g id="OBJECTS">
	<g>
		<g>
			<g>
				<linearGradient id="SVGID_1_" gradientUnits="userSpaceOnUse" x1="-0.1113" y1="33.4013" x2="97.5491" y2="33.4013">
					<stop  offset="0" style="stop-color:#C20E1A"/>
					<stop  offset="0.1453" style="stop-color:#CD591C"/>
					<stop  offset="0.3073" style="stop-color:#FFED00"/>
					<stop  offset="0.5" style="stop-color:#289548"/>
					<stop  offset="0.6816" style="stop-color:#009DE0"/>
					<stop  offset="0.8547" style="stop-color:#322B80"/>
					<stop  offset="1" style="stop-color:#5D2857"/>
				</linearGradient>
				<path class="st0" d="M3.1,35.5c0,0.4-0.1,0.8-0.4,1c-0.2,0.3-0.6,0.4-1,0.4c-0.4,0-0.8-0.1-1-0.4c-0.2-0.3-0.4-0.6-0.4-1.1v-4.1
					c0-0.4,0.1-0.8,0.4-1c0.2-0.3,0.6-0.4,1-0.4c0.4,0,0.7,0.1,1,0.4c0.2,0.3,0.4,0.6,0.4,1.1V32H2.6v-0.6c0-0.3-0.1-0.5-0.2-0.7
					c-0.1-0.2-0.4-0.3-0.6-0.3c-0.3,0-0.5,0.1-0.6,0.3C1,30.8,1,31.1,1,31.3v4.1C1,35.8,1,36,1.2,36.2c0.1,0.2,0.4,0.3,0.6,0.3
					c0.3,0,0.5-0.1,0.6-0.2c0.1-0.2,0.2-0.4,0.2-0.7V35h-1v-0.5h1.5V35.5z"/>
				
					<linearGradient id="SVGID_00000072277093924857315710000016500732884523188870_" gradientUnits="userSpaceOnUse" x1="-0.1113" y1="33.4013" x2="97.5491" y2="33.4013">
					<stop  offset="0" style="stop-color:#C20E1A"/>
					<stop  offset="0.1453" style="stop-color:#CD591C"/>
					<stop  offset="0.3073" style="stop-color:#FFED00"/>
					<stop  offset="0.5" style="stop-color:#289548"/>
					<stop  offset="0.6816" style="stop-color:#009DE0"/>
					<stop  offset="0.8547" style="stop-color:#322B80"/>
					<stop  offset="1" style="stop-color:#5D2857"/>
				</linearGradient>
				<path style="fill:url(#SVGID_00000072277093924857315710000016500732884523188870_);" d="M1.8,37c-0.4,0-0.8-0.1-1-0.4
					c-0.3-0.3-0.4-0.6-0.4-1.1v-4.1c0-0.4,0.1-0.8,0.4-1.1c0.3-0.3,0.6-0.4,1-0.4c0.4,0,0.8,0.1,1,0.4c0.3,0.3,0.4,0.7,0.4,1.1V32
					H2.6v-0.7c0-0.3-0.1-0.5-0.2-0.7c-0.1-0.2-0.3-0.3-0.6-0.3c-0.2,0-0.4,0.1-0.6,0.3C1.1,30.8,1,31.1,1,31.3v4.1
					c0,0.3,0.1,0.5,0.2,0.7c0.1,0.2,0.3,0.2,0.6,0.2c0.2,0,0.4-0.1,0.5-0.2c0.1-0.1,0.2-0.4,0.2-0.7V35h-1v-0.6h1.7v1
					c0,0.4-0.1,0.8-0.4,1.1C2.6,36.9,2.2,37,1.8,37z M1.8,29.9c-0.4,0-0.7,0.1-0.9,0.4c-0.2,0.3-0.4,0.6-0.4,1v4.1
					c0,0.4,0.1,0.8,0.4,1c0.2,0.2,0.6,0.4,0.9,0.4c0.4,0,0.7-0.1,0.9-0.4c0.2-0.3,0.3-0.6,0.3-1v-0.9H1.7v0.3h1v0.6
					c0,0.3-0.1,0.6-0.2,0.8c-0.2,0.2-0.4,0.3-0.7,0.3c-0.3,0-0.5-0.1-0.7-0.3C1,36,0.9,35.8,0.9,35.5v-4.1c0-0.3,0.1-0.6,0.2-0.8
					c0.2-0.2,0.4-0.3,0.7-0.3c0.3,0,0.5,0.1,0.7,0.3c0.1,0.2,0.2,0.5,0.2,0.8v0.6h0.4v-0.6c0-0.4-0.1-0.8-0.3-1
					C2.5,30.1,2.2,29.9,1.8,29.9z"/>
			</g>
			<g>
				
					<linearGradient id="SVGID_00000080202975169440218060000016307808122734103988_" gradientUnits="userSpaceOnUse" x1="-0.1113" y1="34.1168" x2="97.5491" y2="34.1168">
					<stop  offset="0" style="stop-color:#C20E1A"/>
					<stop  offset="0.1453" style="stop-color:#CD591C"/>
					<stop  offset="0.3073" style="stop-color:#FFED00"/>
					<stop  offset="0.5" style="stop-color:#289548"/>
					<stop  offset="0.6816" style="stop-color:#009DE0"/>
					<stop  offset="0.8547" style="stop-color:#322B80"/>
					<stop  offset="1" style="stop-color:#5D2857"/>
				</linearGradient>
				<path style="fill:url(#SVGID_00000080202975169440218060000016307808122734103988_);" d="M7.4,36.6c-0.2,0.2-0.5,0.4-0.8,0.4
					c-0.3,0-0.6-0.1-0.8-0.3c-0.2-0.2-0.3-0.5-0.3-0.9v-4.4H6v4.4c0,0.2,0,0.4,0.1,0.5c0.1,0.1,0.2,0.2,0.4,0.2
					c0.4,0,0.6-0.2,0.6-0.7v-4.4h0.5v4.4C7.7,36.1,7.6,36.3,7.4,36.6z"/>
				
					<linearGradient id="SVGID_00000106122281200616776820000013934539041665731263_" gradientUnits="userSpaceOnUse" x1="-0.1113" y1="34.1168" x2="97.5491" y2="34.1168">
					<stop  offset="0" style="stop-color:#C20E1A"/>
					<stop  offset="0.1453" style="stop-color:#CD591C"/>
					<stop  offset="0.3073" style="stop-color:#FFED00"/>
					<stop  offset="0.5" style="stop-color:#289548"/>
					<stop  offset="0.6816" style="stop-color:#009DE0"/>
					<stop  offset="0.8547" style="stop-color:#322B80"/>
					<stop  offset="1" style="stop-color:#5D2857"/>
				</linearGradient>
				<path style="fill:url(#SVGID_00000106122281200616776820000013934539041665731263_);" d="M6.6,37c-0.4,0-0.6-0.1-0.9-0.4
					c-0.2-0.2-0.3-0.5-0.3-0.9v-4.5h0.7v4.5c0,0.2,0,0.4,0.1,0.5c0.1,0.1,0.2,0.2,0.4,0.2c0.4,0,0.5-0.2,0.5-0.7v-4.5h0.7v4.5
					c0,0.3-0.1,0.6-0.3,0.9C7.3,36.9,7,37,6.6,37z M5.6,31.4v4.3c0,0.3,0.1,0.6,0.3,0.8c0.2,0.2,0.4,0.3,0.8,0.3
					c0.3,0,0.6-0.1,0.8-0.3l0,0c0.2-0.2,0.3-0.5,0.3-0.8v-4.3H7.3v4.3c0,0.7-0.4,0.8-0.7,0.8c-0.2,0-0.4-0.1-0.5-0.2
					C6,36.1,6,35.9,6,35.7v-4.3H5.6z"/>
			</g>
			<g>
				
					<linearGradient id="SVGID_00000070116693098170499400000011321799020576664993_" gradientUnits="userSpaceOnUse" x1="-0.1113" y1="34.087" x2="97.5491" y2="34.087">
					<stop  offset="0" style="stop-color:#C20E1A"/>
					<stop  offset="0.1453" style="stop-color:#CD591C"/>
					<stop  offset="0.3073" style="stop-color:#FFED00"/>
					<stop  offset="0.5" style="stop-color:#289548"/>
					<stop  offset="0.6816" style="stop-color:#009DE0"/>
					<stop  offset="0.8547" style="stop-color:#322B80"/>
					<stop  offset="1" style="stop-color:#5D2857"/>
				</linearGradient>
				<path style="fill:url(#SVGID_00000070116693098170499400000011321799020576664993_);" d="M10.2,31.3h0.5v5.6h-0.5V31.3z"/>
				
					<linearGradient id="SVGID_00000139984449866449209530000009398375348278754984_" gradientUnits="userSpaceOnUse" x1="-0.1113" y1="34.087" x2="97.5491" y2="34.087">
					<stop  offset="0" style="stop-color:#C20E1A"/>
					<stop  offset="0.1453" style="stop-color:#CD591C"/>
					<stop  offset="0.3073" style="stop-color:#FFED00"/>
					<stop  offset="0.5" style="stop-color:#289548"/>
					<stop  offset="0.6816" style="stop-color:#009DE0"/>
					<stop  offset="0.8547" style="stop-color:#322B80"/>
					<stop  offset="1" style="stop-color:#5D2857"/>
				</linearGradient>
				<path style="fill:url(#SVGID_00000139984449866449209530000009398375348278754984_);" d="M10.8,36.9h-0.7v-5.7h0.7V36.9z
					 M10.3,36.8h0.4v-5.4h-0.4V36.8z"/>
			</g>
			<g>
				
					<linearGradient id="SVGID_00000041977143637636026850000000172354315425650311_" gradientUnits="userSpaceOnUse" x1="-0.1113" y1="34.087" x2="97.5491" y2="34.087">
					<stop  offset="0" style="stop-color:#C20E1A"/>
					<stop  offset="0.1453" style="stop-color:#CD591C"/>
					<stop  offset="0.3073" style="stop-color:#FFED00"/>
					<stop  offset="0.5" style="stop-color:#289548"/>
					<stop  offset="0.6816" style="stop-color:#009DE0"/>
					<stop  offset="0.8547" style="stop-color:#322B80"/>
					<stop  offset="1" style="stop-color:#5D2857"/>
				</linearGradient>
				<path style="fill:url(#SVGID_00000041977143637636026850000000172354315425650311_);" d="M14.5,35.4h-0.8l-0.2,1.5H13l0.9-5.6
					h0.6l0.9,5.6h-0.5L14.5,35.4L14.5,35.4z M14.4,34.2l-0.2-1.8l-0.2,1.8L13.8,35h0.7L14.4,34.2z"/>
				
					<linearGradient id="SVGID_00000172414760542136153580000016160237635377512094_" gradientUnits="userSpaceOnUse" x1="-0.1113" y1="34.087" x2="97.5491" y2="34.087">
					<stop  offset="0" style="stop-color:#C20E1A"/>
					<stop  offset="0.1453" style="stop-color:#CD591C"/>
					<stop  offset="0.3073" style="stop-color:#FFED00"/>
					<stop  offset="0.5" style="stop-color:#289548"/>
					<stop  offset="0.6816" style="stop-color:#009DE0"/>
					<stop  offset="0.8547" style="stop-color:#322B80"/>
					<stop  offset="1" style="stop-color:#5D2857"/>
				</linearGradient>
				<path style="fill:url(#SVGID_00000172414760542136153580000016160237635377512094_);" d="M15.4,36.9h-0.7l-0.2-1.5h-0.7
					l-0.2,1.5h-0.7l0.9-5.7h0.7L15.4,36.9z M14.8,36.8h0.4l-0.8-5.4h-0.4l-0.8,5.4h0.4l0.2-1.5h0.9v0.1l0.1,0L14.8,36.8z M14.6,35
					h-0.9l0.1-0.9l0.3-2.3l0.3,2.3L14.6,35z M13.9,34.9h0.5l-0.1-0.7l-0.2-1.2L14,34.2L13.9,34.9z"/>
			</g>
			<g>
				
					<linearGradient id="SVGID_00000028313407980947335500000001988432318497980860_" gradientUnits="userSpaceOnUse" x1="-0.1113" y1="34.087" x2="97.5491" y2="34.087">
					<stop  offset="0" style="stop-color:#C20E1A"/>
					<stop  offset="0.1453" style="stop-color:#CD591C"/>
					<stop  offset="0.3073" style="stop-color:#FFED00"/>
					<stop  offset="0.5" style="stop-color:#289548"/>
					<stop  offset="0.6816" style="stop-color:#009DE0"/>
					<stop  offset="0.8547" style="stop-color:#322B80"/>
					<stop  offset="1" style="stop-color:#5D2857"/>
				</linearGradient>
				<path style="fill:url(#SVGID_00000028313407980947335500000001988432318497980860_);" d="M22.6,36.7c-0.2,0.1-0.5,0.2-0.8,0.2
					h-1.1v-5.6h1.1c0.3,0,0.6,0.1,0.8,0.2c0.2,0.2,0.3,0.5,0.3,0.9v3.3C22.9,36.2,22.8,36.5,22.6,36.7z M22.3,31.9
					c-0.1-0.1-0.3-0.1-0.5-0.1h-0.5v4.6h0.5c0.2,0,0.3,0,0.5-0.1c0.1-0.1,0.2-0.3,0.2-0.5v-3.3C22.4,32.2,22.4,32,22.3,31.9z"/>
				
					<linearGradient id="SVGID_00000072966324228773208890000006701078947774741172_" gradientUnits="userSpaceOnUse" x1="-0.1113" y1="34.087" x2="97.5491" y2="34.087">
					<stop  offset="0" style="stop-color:#C20E1A"/>
					<stop  offset="0.1453" style="stop-color:#CD591C"/>
					<stop  offset="0.3073" style="stop-color:#FFED00"/>
					<stop  offset="0.5" style="stop-color:#289548"/>
					<stop  offset="0.6816" style="stop-color:#009DE0"/>
					<stop  offset="0.8547" style="stop-color:#322B80"/>
					<stop  offset="1" style="stop-color:#5D2857"/>
				</linearGradient>
				<path style="fill:url(#SVGID_00000072966324228773208890000006701078947774741172_);" d="M21.8,36.9h-1.1v-5.7h1.1
					c0.4,0,0.7,0.1,0.9,0.3c0.2,0.2,0.3,0.5,0.3,1v3.3c0,0.5-0.1,0.8-0.4,1l0,0C22.4,36.9,22.1,36.9,21.8,36.9z M20.8,36.8h1
					c0.3,0,0.5-0.1,0.7-0.2h0c0.2-0.1,0.3-0.4,0.3-0.9v-3.3c0-0.4-0.1-0.7-0.3-0.8c-0.2-0.1-0.5-0.2-0.8-0.2h-1V36.8z M21.8,36.4
					h-0.6v-4.7h0.6c0.2,0,0.4,0.1,0.5,0.1l0,0c0.1,0.1,0.2,0.3,0.2,0.6v3.3c0,0.3-0.1,0.4-0.2,0.6C22.2,36.4,22,36.4,21.8,36.4z
					 M21.3,36.3h0.5c0.2,0,0.3,0,0.4-0.1c0.1-0.1,0.2-0.2,0.2-0.4v-3.3c0-0.2-0.1-0.4-0.1-0.5l0,0c-0.1-0.1-0.2-0.1-0.4-0.1h-0.5
					V36.3z"/>
			</g>
			<g>
				
					<linearGradient id="SVGID_00000057117288116313770080000014734786089817252771_" gradientUnits="userSpaceOnUse" x1="-0.1113" y1="34.087" x2="97.5491" y2="34.087">
					<stop  offset="0" style="stop-color:#C20E1A"/>
					<stop  offset="0.1453" style="stop-color:#CD591C"/>
					<stop  offset="0.3073" style="stop-color:#FFED00"/>
					<stop  offset="0.5" style="stop-color:#289548"/>
					<stop  offset="0.6816" style="stop-color:#009DE0"/>
					<stop  offset="0.8547" style="stop-color:#322B80"/>
					<stop  offset="1" style="stop-color:#5D2857"/>
				</linearGradient>
				<path style="fill:url(#SVGID_00000057117288116313770080000014734786089817252771_);" d="M26.7,35.4h-0.8l-0.2,1.5h-0.5l0.9-5.6
					h0.6l0.9,5.6H27L26.7,35.4L26.7,35.4z M26.6,34.2l-0.2-1.8l-0.2,1.8L26,35h0.7L26.6,34.2z"/>
				
					<linearGradient id="SVGID_00000109725986349016269080000017975815095746751152_" gradientUnits="userSpaceOnUse" x1="-0.1113" y1="34.087" x2="97.5491" y2="34.087">
					<stop  offset="0" style="stop-color:#C20E1A"/>
					<stop  offset="0.1453" style="stop-color:#CD591C"/>
					<stop  offset="0.3073" style="stop-color:#FFED00"/>
					<stop  offset="0.5" style="stop-color:#289548"/>
					<stop  offset="0.6816" style="stop-color:#009DE0"/>
					<stop  offset="0.8547" style="stop-color:#322B80"/>
					<stop  offset="1" style="stop-color:#5D2857"/>
				</linearGradient>
				<path style="fill:url(#SVGID_00000109725986349016269080000017975815095746751152_);" d="M27.6,36.9h-0.7l-0.2-1.5H26l-0.2,1.5
					h-0.7l0.9-5.7h0.7L27.6,36.9z M27,36.8h0.4l-0.8-5.4h-0.4l-0.8,5.4h0.4l0.2-1.5h0.9v0.1l0.1,0L27,36.8z M26.8,35h-0.9l0.1-0.9
					l0.3-2.3l0.3,2.3L26.8,35z M26.1,34.9h0.5l-0.1-0.7l-0.2-1.2l-0.2,1.2L26.1,34.9z"/>
			</g>
			<g>
				
					<linearGradient id="SVGID_00000154422268337973566640000014124864755462807681_" gradientUnits="userSpaceOnUse" x1="-0.1113" y1="33.3864" x2="97.5491" y2="33.3864">
					<stop  offset="0" style="stop-color:#C20E1A"/>
					<stop  offset="0.1453" style="stop-color:#CD591C"/>
					<stop  offset="0.3073" style="stop-color:#FFED00"/>
					<stop  offset="0.5" style="stop-color:#289548"/>
					<stop  offset="0.6816" style="stop-color:#009DE0"/>
					<stop  offset="0.8547" style="stop-color:#322B80"/>
					<stop  offset="1" style="stop-color:#5D2857"/>
				</linearGradient>
				<path style="fill:url(#SVGID_00000154422268337973566640000014124864755462807681_);" d="M33.3,36.5c-0.3-0.3-0.4-0.6-0.4-1.1
					v-4.1c0-0.5,0.1-0.8,0.4-1.1c0.2-0.3,0.6-0.4,1-0.4c0.4,0,0.7,0.1,1,0.4c0.2,0.3,0.4,0.6,0.4,1.1v0.6h-0.5v-0.6
					c0-0.7-0.3-1-0.8-1c-0.3,0-0.5,0.1-0.6,0.3c-0.2,0.2-0.2,0.4-0.2,0.7v4.1c0,0.3,0.1,0.5,0.2,0.7c0.2,0.2,0.4,0.3,0.6,0.3
					c0.3,0,0.5-0.1,0.6-0.3c0.1-0.2,0.2-0.4,0.2-0.7v-0.6h0.5v0.6c0,0.4-0.1,0.7-0.3,1c-0.2,0.3-0.6,0.4-1,0.4
					C33.9,36.9,33.5,36.8,33.3,36.5z"/>
				
					<linearGradient id="SVGID_00000117661998919036452110000002197673044029625989_" gradientUnits="userSpaceOnUse" x1="-0.1113" y1="33.3864" x2="97.5491" y2="33.3864">
					<stop  offset="0" style="stop-color:#C20E1A"/>
					<stop  offset="0.1453" style="stop-color:#CD591C"/>
					<stop  offset="0.3073" style="stop-color:#FFED00"/>
					<stop  offset="0.5" style="stop-color:#289548"/>
					<stop  offset="0.6816" style="stop-color:#009DE0"/>
					<stop  offset="0.8547" style="stop-color:#322B80"/>
					<stop  offset="1" style="stop-color:#5D2857"/>
				</linearGradient>
				<path style="fill:url(#SVGID_00000117661998919036452110000002197673044029625989_);" d="M34.3,37c-0.4,0-0.8-0.1-1.1-0.4
					c-0.3-0.3-0.4-0.7-0.4-1.1v-4.1c0-0.5,0.1-0.8,0.4-1.1c0.3-0.3,0.6-0.4,1.1-0.4c0.4,0,0.8,0.1,1,0.4c0.3,0.3,0.4,0.7,0.4,1.1V32
					h-0.6v-0.7c0-0.6-0.3-0.9-0.8-0.9c-0.2,0-0.4,0.1-0.6,0.2c-0.1,0.2-0.2,0.4-0.2,0.7v4.1c0,0.3,0.1,0.5,0.2,0.7
					c0.1,0.2,0.3,0.3,0.6,0.3c0.2,0,0.4-0.1,0.6-0.3c0.1-0.2,0.2-0.4,0.2-0.7v-0.7h0.6v0.7c0,0.4-0.1,0.8-0.4,1.1
					C35.1,36.9,34.7,37,34.3,37z M34.3,29.9c-0.4,0-0.7,0.1-0.9,0.4c-0.2,0.3-0.4,0.6-0.4,1v4.1c0,0.4,0.1,0.7,0.4,1h0
					c0.2,0.3,0.6,0.4,1,0.4c0.4,0,0.7-0.1,0.9-0.4c0.2-0.3,0.3-0.6,0.3-1v-0.5h-0.4v0.5c0,0.3-0.1,0.5-0.2,0.7
					c-0.2,0.2-0.4,0.3-0.7,0.3c-0.3,0-0.5-0.1-0.7-0.3c-0.2-0.2-0.2-0.5-0.2-0.7v-4.1c0-0.3,0.1-0.6,0.3-0.8
					c0.2-0.2,0.4-0.3,0.7-0.3c0.6,0,0.9,0.4,0.9,1.1v0.6h0.4v-0.6c0-0.4-0.1-0.8-0.3-1C35,30,34.7,29.9,34.3,29.9z"/>
			</g>
			<g>
				
					<linearGradient id="SVGID_00000033340084806850175230000015809420693371113386_" gradientUnits="userSpaceOnUse" x1="-0.1113" y1="34.087" x2="97.5491" y2="34.087">
					<stop  offset="0" style="stop-color:#C20E1A"/>
					<stop  offset="0.1453" style="stop-color:#CD591C"/>
					<stop  offset="0.3073" style="stop-color:#FFED00"/>
					<stop  offset="0.5" style="stop-color:#289548"/>
					<stop  offset="0.6816" style="stop-color:#009DE0"/>
					<stop  offset="0.8547" style="stop-color:#322B80"/>
					<stop  offset="1" style="stop-color:#5D2857"/>
				</linearGradient>
				<path style="fill:url(#SVGID_00000033340084806850175230000015809420693371113386_);" d="M38.1,31.3h0.5v5.6h-0.5V31.3z"/>
				
					<linearGradient id="SVGID_00000065794850683076828380000000021041761343604617_" gradientUnits="userSpaceOnUse" x1="-0.1113" y1="34.087" x2="97.5491" y2="34.087">
					<stop  offset="0" style="stop-color:#C20E1A"/>
					<stop  offset="0.1453" style="stop-color:#CD591C"/>
					<stop  offset="0.3073" style="stop-color:#FFED00"/>
					<stop  offset="0.5" style="stop-color:#289548"/>
					<stop  offset="0.6816" style="stop-color:#009DE0"/>
					<stop  offset="0.8547" style="stop-color:#322B80"/>
					<stop  offset="1" style="stop-color:#5D2857"/>
				</linearGradient>
				<path style="fill:url(#SVGID_00000065794850683076828380000000021041761343604617_);" d="M38.7,36.9H38v-5.7h0.7V36.9z
					 M38.2,36.8h0.4v-5.4h-0.4V36.8z"/>
			</g>
			<g>
				
					<linearGradient id="SVGID_00000070111106333547777600000005710975311960645049_" gradientUnits="userSpaceOnUse" x1="-0.1113" y1="34.087" x2="97.5491" y2="34.087">
					<stop  offset="0" style="stop-color:#C20E1A"/>
					<stop  offset="0.1453" style="stop-color:#CD591C"/>
					<stop  offset="0.3073" style="stop-color:#FFED00"/>
					<stop  offset="0.5" style="stop-color:#289548"/>
					<stop  offset="0.6816" style="stop-color:#009DE0"/>
					<stop  offset="0.8547" style="stop-color:#322B80"/>
					<stop  offset="1" style="stop-color:#5D2857"/>
				</linearGradient>
				<path style="fill:url(#SVGID_00000070111106333547777600000005710975311960645049_);" d="M42.9,36.7c-0.2,0.1-0.5,0.2-0.8,0.2
					h-1.1v-5.6h1.1c0.3,0,0.6,0.1,0.8,0.2c0.2,0.2,0.3,0.5,0.3,0.9v3.3C43.3,36.2,43.2,36.5,42.9,36.7z M42.6,31.9
					c-0.1-0.1-0.3-0.1-0.5-0.1h-0.5v4.6h0.5c0.2,0,0.3,0,0.5-0.1c0.1-0.1,0.2-0.3,0.2-0.5v-3.3C42.8,32.2,42.7,32,42.6,31.9z"/>
				
					<linearGradient id="SVGID_00000031196907162674680840000015928530402082252988_" gradientUnits="userSpaceOnUse" x1="-0.1113" y1="34.087" x2="97.5491" y2="34.087">
					<stop  offset="0" style="stop-color:#C20E1A"/>
					<stop  offset="0.1453" style="stop-color:#CD591C"/>
					<stop  offset="0.3073" style="stop-color:#FFED00"/>
					<stop  offset="0.5" style="stop-color:#289548"/>
					<stop  offset="0.6816" style="stop-color:#009DE0"/>
					<stop  offset="0.8547" style="stop-color:#322B80"/>
					<stop  offset="1" style="stop-color:#5D2857"/>
				</linearGradient>
				<path style="fill:url(#SVGID_00000031196907162674680840000015928530402082252988_);" d="M42.1,36.9H41v-5.7h1.1
					c0.4,0,0.7,0.1,0.9,0.3c0.2,0.2,0.3,0.5,0.3,1v3.3c0,0.5-0.1,0.8-0.4,1l0,0C42.7,36.9,42.4,36.9,42.1,36.9z M41.1,36.8h1
					c0.3,0,0.5-0.1,0.7-0.2h0c0.2-0.1,0.3-0.4,0.3-0.9v-3.3c0-0.4-0.1-0.7-0.3-0.8c-0.2-0.1-0.5-0.2-0.8-0.2h-1V36.8z M42.1,36.4
					h-0.6v-4.7h0.6c0.2,0,0.4,0.1,0.5,0.1l0,0c0.1,0.1,0.2,0.3,0.2,0.6v3.3c0,0.3-0.1,0.4-0.2,0.6C42.5,36.4,42.3,36.4,42.1,36.4z
					 M41.7,36.3h0.5c0.2,0,0.3,0,0.4-0.1c0.1-0.1,0.2-0.2,0.2-0.4v-3.3c0-0.2-0.1-0.4-0.1-0.5l0,0c-0.1-0.1-0.2-0.1-0.4-0.1h-0.5
					V36.3z"/>
			</g>
			<g>
				
					<linearGradient id="SVGID_00000152242928489824037030000000381419151494823571_" gradientUnits="userSpaceOnUse" x1="-0.1113" y1="34.087" x2="97.5491" y2="34.087">
					<stop  offset="0" style="stop-color:#C20E1A"/>
					<stop  offset="0.1453" style="stop-color:#CD591C"/>
					<stop  offset="0.3073" style="stop-color:#FFED00"/>
					<stop  offset="0.5" style="stop-color:#289548"/>
					<stop  offset="0.6816" style="stop-color:#009DE0"/>
					<stop  offset="0.8547" style="stop-color:#322B80"/>
					<stop  offset="1" style="stop-color:#5D2857"/>
				</linearGradient>
				<path style="fill:url(#SVGID_00000152242928489824037030000000381419151494823571_);" d="M47.1,35.4h-0.8l-0.2,1.5h-0.5l0.9-5.6
					H47l0.9,5.6h-0.5L47.1,35.4L47.1,35.4z M46.9,34.2l-0.2-1.8l-0.2,1.8L46.3,35H47L46.9,34.2z"/>
				
					<linearGradient id="SVGID_00000067209305411475866610000007984081994498566589_" gradientUnits="userSpaceOnUse" x1="-0.1113" y1="34.087" x2="97.5491" y2="34.087">
					<stop  offset="0" style="stop-color:#C20E1A"/>
					<stop  offset="0.1453" style="stop-color:#CD591C"/>
					<stop  offset="0.3073" style="stop-color:#FFED00"/>
					<stop  offset="0.5" style="stop-color:#289548"/>
					<stop  offset="0.6816" style="stop-color:#009DE0"/>
					<stop  offset="0.8547" style="stop-color:#322B80"/>
					<stop  offset="1" style="stop-color:#5D2857"/>
				</linearGradient>
				<path style="fill:url(#SVGID_00000067209305411475866610000007984081994498566589_);" d="M47.9,36.9h-0.7L47,35.5h-0.7l-0.2,1.5
					h-0.7l0.9-5.7H47L47.9,36.9z M47.4,36.8h0.4l-0.8-5.4h-0.4l-0.8,5.4H46l0.2-1.5h0.9v0.1l0.1,0L47.4,36.8z M47.1,35h-0.9l0.1-0.9
					l0.3-2.3l0.3,2.3L47.1,35z M46.4,34.9h0.5l-0.1-0.7l-0.2-1.2l-0.2,1.2L46.4,34.9z"/>
			</g>
			<g>
				
					<linearGradient id="SVGID_00000040564198310878025930000013551495304285883008_" gradientUnits="userSpaceOnUse" x1="-0.1113" y1="34.087" x2="97.5491" y2="34.087">
					<stop  offset="0" style="stop-color:#C20E1A"/>
					<stop  offset="0.1453" style="stop-color:#CD591C"/>
					<stop  offset="0.3073" style="stop-color:#FFED00"/>
					<stop  offset="0.5" style="stop-color:#289548"/>
					<stop  offset="0.6816" style="stop-color:#009DE0"/>
					<stop  offset="0.8547" style="stop-color:#322B80"/>
					<stop  offset="1" style="stop-color:#5D2857"/>
				</linearGradient>
				<path style="fill:url(#SVGID_00000040564198310878025930000013551495304285883008_);" d="M52,36.7c-0.2,0.1-0.5,0.2-0.8,0.2
					h-1.1v-5.6h1.1c0.3,0,0.6,0.1,0.8,0.2c0.2,0.2,0.3,0.5,0.3,0.9v3.3C52.4,36.2,52.2,36.5,52,36.7z M51.7,31.9
					c-0.1-0.1-0.3-0.1-0.5-0.1h-0.5v4.6h0.5c0.2,0,0.3,0,0.5-0.1c0.1-0.1,0.2-0.3,0.2-0.5v-3.3C51.8,32.2,51.8,32,51.7,31.9z"/>
				
					<linearGradient id="SVGID_00000164487465035850895000000007489098577168037770_" gradientUnits="userSpaceOnUse" x1="-0.1113" y1="34.087" x2="97.5491" y2="34.087">
					<stop  offset="0" style="stop-color:#C20E1A"/>
					<stop  offset="0.1453" style="stop-color:#CD591C"/>
					<stop  offset="0.3073" style="stop-color:#FFED00"/>
					<stop  offset="0.5" style="stop-color:#289548"/>
					<stop  offset="0.6816" style="stop-color:#009DE0"/>
					<stop  offset="0.8547" style="stop-color:#322B80"/>
					<stop  offset="1" style="stop-color:#5D2857"/>
				</linearGradient>
				<path style="fill:url(#SVGID_00000164487465035850895000000007489098577168037770_);" d="M51.2,36.9h-1.1v-5.7h1.1
					c0.4,0,0.7,0.1,0.9,0.3c0.2,0.2,0.3,0.5,0.3,1v3.3c0,0.5-0.1,0.8-0.4,1C51.8,36.9,51.5,36.9,51.2,36.9z M50.2,36.8h1
					c0.3,0,0.5-0.1,0.7-0.2l0,0c0.2-0.1,0.3-0.4,0.3-0.9v-3.3c0-0.4-0.1-0.7-0.3-0.8c-0.2-0.1-0.5-0.2-0.8-0.2h-1V36.8z M51.2,36.4
					h-0.6v-4.7h0.6c0.2,0,0.4,0.1,0.5,0.1c0.1,0.1,0.2,0.3,0.2,0.6v3.3c0,0.3-0.1,0.4-0.2,0.6C51.6,36.4,51.4,36.4,51.2,36.4z
					 M50.7,36.3h0.5c0.2,0,0.3,0,0.4-0.1c0.1-0.1,0.2-0.2,0.2-0.4v-3.3c0-0.2-0.1-0.4-0.1-0.5c-0.1-0.1-0.2-0.1-0.4-0.1h-0.5V36.3z"
					/>
			</g>
			<g>
				
					<linearGradient id="SVGID_00000178179764882990784010000013184188833767846301_" gradientUnits="userSpaceOnUse" x1="-0.1113" y1="34.087" x2="97.5491" y2="34.087">
					<stop  offset="0" style="stop-color:#C20E1A"/>
					<stop  offset="0.1453" style="stop-color:#CD591C"/>
					<stop  offset="0.3073" style="stop-color:#FFED00"/>
					<stop  offset="0.5" style="stop-color:#289548"/>
					<stop  offset="0.6816" style="stop-color:#009DE0"/>
					<stop  offset="0.8547" style="stop-color:#322B80"/>
					<stop  offset="1" style="stop-color:#5D2857"/>
				</linearGradient>
				<path style="fill:url(#SVGID_00000178179764882990784010000013184188833767846301_);" d="M55.3,34.9h1.2v0.5h-1.2v1h1.5v0.5h-2
					v-5.6h2v0.5h-1.5V34.9z"/>
				
					<linearGradient id="SVGID_00000004529403612074919480000000936894236758715299_" gradientUnits="userSpaceOnUse" x1="-0.1113" y1="34.087" x2="97.5491" y2="34.087">
					<stop  offset="0" style="stop-color:#C20E1A"/>
					<stop  offset="0.1453" style="stop-color:#CD591C"/>
					<stop  offset="0.3073" style="stop-color:#FFED00"/>
					<stop  offset="0.5" style="stop-color:#289548"/>
					<stop  offset="0.6816" style="stop-color:#009DE0"/>
					<stop  offset="0.8547" style="stop-color:#322B80"/>
					<stop  offset="1" style="stop-color:#5D2857"/>
				</linearGradient>
				<path style="fill:url(#SVGID_00000004529403612074919480000000936894236758715299_);" d="M56.9,36.9h-2.1v-5.7h2.1v0.6h-1.5v3
					h1.2v0.6h-1.2v0.8h1.5V36.9z M54.9,36.8h1.9v-0.3h-1.5v-1.1h1.2V35h-1.2v-3.3h1.5v-0.3h-1.9V36.8z"/>
			</g>
			<g>
				
					<linearGradient id="SVGID_00000090285914632802283420000001064453285256269190_" gradientUnits="userSpaceOnUse" x1="-0.1113" y1="33.4014" x2="97.5491" y2="33.4014">
					<stop  offset="0" style="stop-color:#C20E1A"/>
					<stop  offset="0.1453" style="stop-color:#CD591C"/>
					<stop  offset="0.3073" style="stop-color:#FFED00"/>
					<stop  offset="0.5" style="stop-color:#289548"/>
					<stop  offset="0.6816" style="stop-color:#009DE0"/>
					<stop  offset="0.8547" style="stop-color:#322B80"/>
					<stop  offset="1" style="stop-color:#5D2857"/>
				</linearGradient>
				<path style="fill:url(#SVGID_00000090285914632802283420000001064453285256269190_);" d="M62.6,36.5c-0.3-0.3-0.4-0.6-0.4-1.1
					v-0.7h0.5v0.7c0,0.3,0.1,0.5,0.2,0.7c0.2,0.2,0.4,0.3,0.7,0.3c0.3,0,0.5-0.1,0.6-0.3c0.1-0.2,0.2-0.4,0.2-0.7V35
					c0-0.1,0-0.3-0.1-0.4c-0.1-0.1-0.2-0.2-0.2-0.2c-0.1-0.1-0.3-0.2-0.5-0.3c-0.3-0.2-0.5-0.3-0.7-0.4c-0.2-0.1-0.3-0.2-0.4-0.4
					c-0.1-0.2-0.2-0.4-0.2-0.6v-1.4c0-0.4,0.1-0.8,0.3-1c0.2-0.3,0.5-0.4,0.9-0.4c0.4,0,0.7,0.1,0.9,0.4c0.2,0.3,0.3,0.6,0.3,1v0.9
					h-0.5v-0.9c0-0.3-0.1-0.5-0.2-0.7c-0.1-0.2-0.3-0.3-0.6-0.3c-0.2,0-0.4,0.1-0.5,0.2c-0.1,0.2-0.2,0.4-0.2,0.7v1.4
					c0,0.2,0.1,0.4,0.2,0.5c0.1,0.1,0.3,0.3,0.6,0.4c0.1,0,0.2,0.1,0.5,0.3c0.3,0.2,0.5,0.3,0.6,0.5c0.1,0.2,0.2,0.4,0.2,0.6v0.5
					c0,0.4-0.1,0.8-0.3,1c-0.2,0.3-0.6,0.4-1,0.4C63.2,36.9,62.9,36.8,62.6,36.5z"/>
				
					<linearGradient id="SVGID_00000157992141007612056760000017271436570949127831_" gradientUnits="userSpaceOnUse" x1="-0.1113" y1="33.4014" x2="97.5491" y2="33.4014">
					<stop  offset="0" style="stop-color:#C20E1A"/>
					<stop  offset="0.1453" style="stop-color:#CD591C"/>
					<stop  offset="0.3073" style="stop-color:#FFED00"/>
					<stop  offset="0.5" style="stop-color:#289548"/>
					<stop  offset="0.6816" style="stop-color:#009DE0"/>
					<stop  offset="0.8547" style="stop-color:#322B80"/>
					<stop  offset="1" style="stop-color:#5D2857"/>
				</linearGradient>
				<path style="fill:url(#SVGID_00000157992141007612056760000017271436570949127831_);" d="M63.6,37c-0.4,0-0.8-0.1-1.1-0.4l0,0
					c-0.3-0.3-0.4-0.7-0.4-1.1v-0.7h0.7v0.7c0,0.3,0.1,0.5,0.2,0.7c0.1,0.2,0.3,0.3,0.6,0.3c0.2,0,0.4-0.1,0.6-0.3
					c0.1-0.2,0.2-0.4,0.2-0.7V35c0-0.1,0-0.2-0.1-0.3c-0.1-0.1-0.1-0.2-0.2-0.2c-0.1-0.1-0.3-0.2-0.5-0.3c-0.3-0.2-0.5-0.3-0.7-0.4
					c-0.2-0.1-0.3-0.3-0.4-0.4c-0.1-0.2-0.2-0.4-0.2-0.7l0-1.4c0-0.4,0.1-0.8,0.3-1.1c0.2-0.3,0.6-0.4,1-0.4c0.4,0,0.7,0.1,1,0.4
					c0.2,0.3,0.3,0.6,0.3,1.1v1h-0.6v-1c0-0.3-0.1-0.5-0.2-0.6c-0.1-0.2-0.3-0.2-0.5-0.2c-0.2,0-0.4,0.1-0.5,0.2
					c-0.1,0.1-0.2,0.4-0.2,0.7v1.4c0,0.2,0.1,0.3,0.2,0.5c0.1,0.1,0.3,0.3,0.6,0.4c0.1,0,0.2,0.1,0.5,0.3c0.3,0.2,0.5,0.3,0.6,0.5
					C65,34.5,65,34.8,65,35v0.5c0,0.4-0.1,0.8-0.4,1.1C64.4,36.9,64.1,37,63.6,37z M62.7,36.5c0.2,0.3,0.6,0.4,1,0.4
					c0.4,0,0.7-0.1,0.9-0.4c0.2-0.3,0.3-0.6,0.3-1V35c0-0.2-0.1-0.4-0.2-0.6c-0.1-0.2-0.3-0.3-0.6-0.5c-0.3-0.2-0.5-0.3-0.5-0.3
					c-0.3-0.1-0.5-0.3-0.6-0.4c-0.2-0.2-0.2-0.3-0.3-0.6l0-1.4c0-0.3,0.1-0.6,0.2-0.8c0.1-0.2,0.3-0.3,0.6-0.3
					c0.3,0,0.5,0.1,0.6,0.3c0.1,0.2,0.2,0.4,0.2,0.7v0.8h0.4v-0.8c0-0.4-0.1-0.7-0.3-1c-0.2-0.3-0.5-0.4-0.9-0.4
					c-0.4,0-0.7,0.1-0.9,0.4c-0.2,0.3-0.3,0.6-0.3,1v1.4c0,0.2,0.1,0.4,0.2,0.6c0.1,0.2,0.3,0.3,0.4,0.4c0.2,0.1,0.4,0.2,0.7,0.4
					c0.3,0.1,0.4,0.2,0.5,0.3c0.1,0.1,0.2,0.1,0.3,0.3c0.1,0.1,0.1,0.3,0.1,0.4v0.5c0,0.3-0.1,0.6-0.2,0.7c-0.2,0.2-0.4,0.3-0.7,0.3
					c-0.3,0-0.5-0.1-0.7-0.3c-0.2-0.2-0.2-0.5-0.2-0.8l0-0.6h-0.4v0.6C62.3,35.9,62.4,36.2,62.7,36.5z"/>
			</g>
			<g>
				
					<linearGradient id="SVGID_00000102523334523388089230000016438556672194451102_" gradientUnits="userSpaceOnUse" x1="-0.1113" y1="33.4759" x2="97.5491" y2="33.4759">
					<stop  offset="0" style="stop-color:#C20E1A"/>
					<stop  offset="0.1453" style="stop-color:#CD591C"/>
					<stop  offset="0.3073" style="stop-color:#FFED00"/>
					<stop  offset="0.5" style="stop-color:#289548"/>
					<stop  offset="0.6816" style="stop-color:#009DE0"/>
					<stop  offset="0.8547" style="stop-color:#322B80"/>
					<stop  offset="1" style="stop-color:#5D2857"/>
				</linearGradient>
				<path style="fill:url(#SVGID_00000102523334523388089230000016438556672194451102_);" d="M68.7,35.4h-0.8l-0.2,1.5h-0.5l0.9-5.6
					h0.6l0.9,5.6h-0.5L68.7,35.4L68.7,35.4z M68,30.5c-0.1,0-0.3,0.1-0.4,0.2v-0.4c0.1-0.1,0.2-0.2,0.4-0.2c0.1,0,0.2,0,0.3,0.1
					c0.1,0.1,0.2,0.1,0.3,0.1c0.1,0,0.3-0.1,0.4-0.2v0.4c-0.1,0.1-0.2,0.2-0.4,0.2c-0.1,0-0.2,0-0.3-0.1
					C68.2,30.5,68.1,30.5,68,30.5z M68.5,34.2l-0.2-1.8l-0.2,1.8L67.9,35h0.7L68.5,34.2z"/>
				
					<linearGradient id="SVGID_00000074406917497020433390000003154807468714713220_" gradientUnits="userSpaceOnUse" x1="-0.1113" y1="33.415" x2="97.5491" y2="33.415">
					<stop  offset="0" style="stop-color:#C20E1A"/>
					<stop  offset="0.1453" style="stop-color:#CD591C"/>
					<stop  offset="0.3073" style="stop-color:#FFED00"/>
					<stop  offset="0.5" style="stop-color:#289548"/>
					<stop  offset="0.6816" style="stop-color:#009DE0"/>
					<stop  offset="0.8547" style="stop-color:#322B80"/>
					<stop  offset="1" style="stop-color:#5D2857"/>
				</linearGradient>
				<path style="fill:url(#SVGID_00000074406917497020433390000003154807468714713220_);" d="M69.5,36.9h-0.7l-0.2-1.5H68l-0.2,1.5
					h-0.7l0.9-5.7h0.7l0,0.1L69.5,36.9z M69,36.8h0.4l-0.8-5.4h-0.4l-0.8,5.4h0.4l0.2-1.5h0.9v0.1l0.1,0L69,36.8z M68.7,35h-0.9
					l0.1-0.9l0.3-2.3l0.3,2.3L68.7,35z M68,34.9h0.5l-0.1-0.7l-0.2-1.2l-0.2,1.2L68,34.9z M67.6,30.9v-0.6l0,0
					c0.1-0.2,0.3-0.2,0.5-0.2c0.1,0,0.2,0,0.3,0.1c0.2,0.1,0.4,0.1,0.5-0.1l0.1-0.1v0.6l0,0c-0.1,0.2-0.3,0.2-0.5,0.2
					c-0.1,0-0.2,0-0.3-0.1c-0.1,0-0.1-0.1-0.2-0.1c-0.1,0-0.2,0.1-0.3,0.2L67.6,30.9z M68,30.4c0.1,0,0.2,0,0.3,0.1
					c0.1,0.1,0.1,0.1,0.2,0.1c0.1,0,0.2-0.1,0.3-0.2v-0.2c-0.2,0.1-0.4,0.1-0.6,0c-0.1-0.1-0.1-0.1-0.2-0.1c-0.1,0-0.2,0.1-0.3,0.2
					v0.2C67.8,30.5,67.9,30.4,68,30.4z"/>
			</g>
			<g>
				
					<linearGradient id="SVGID_00000059273326120496249780000003828560776829133740_" gradientUnits="userSpaceOnUse" x1="-0.1113" y1="34.092" x2="97.5491" y2="34.092">
					<stop  offset="0" style="stop-color:#C20E1A"/>
					<stop  offset="0.1453" style="stop-color:#CD591C"/>
					<stop  offset="0.3073" style="stop-color:#FFED00"/>
					<stop  offset="0.5" style="stop-color:#289548"/>
					<stop  offset="0.6816" style="stop-color:#009DE0"/>
					<stop  offset="0.8547" style="stop-color:#322B80"/>
					<stop  offset="1" style="stop-color:#5D2857"/>
				</linearGradient>
				<path style="fill:url(#SVGID_00000059273326120496249780000003828560776829133740_);" d="M71.9,36.6c-0.2-0.2-0.3-0.5-0.3-0.8
					v-3.3c0-0.3,0.1-0.6,0.3-0.8c0.2-0.2,0.5-0.3,0.8-0.3c0.3,0,0.6,0.1,0.8,0.3c0.2,0.2,0.3,0.5,0.3,0.8v3.3c0,0.3-0.1,0.6-0.3,0.8
					c-0.2,0.2-0.5,0.4-0.8,0.4C72.4,36.9,72.1,36.8,71.9,36.6z M72.3,31.9c-0.1,0.1-0.2,0.3-0.2,0.5v3.3c0,0.2,0.1,0.4,0.2,0.5
					c0.1,0.1,0.3,0.2,0.4,0.2c0.2,0,0.3-0.1,0.4-0.2c0.1-0.1,0.1-0.3,0.1-0.5v-3.3c0-0.2,0-0.4-0.1-0.5s-0.2-0.2-0.4-0.2
					C72.6,31.7,72.4,31.8,72.3,31.9z"/>
				
					<linearGradient id="SVGID_00000062887399370888354840000000576376477882461328_" gradientUnits="userSpaceOnUse" x1="-0.1113" y1="34.092" x2="97.5491" y2="34.092">
					<stop  offset="0" style="stop-color:#C20E1A"/>
					<stop  offset="0.1453" style="stop-color:#CD591C"/>
					<stop  offset="0.3073" style="stop-color:#FFED00"/>
					<stop  offset="0.5" style="stop-color:#289548"/>
					<stop  offset="0.6816" style="stop-color:#009DE0"/>
					<stop  offset="0.8547" style="stop-color:#322B80"/>
					<stop  offset="1" style="stop-color:#5D2857"/>
				</linearGradient>
				<path style="fill:url(#SVGID_00000062887399370888354840000000576376477882461328_);" d="M72.7,37c-0.4,0-0.7-0.1-0.9-0.4
					c-0.2-0.2-0.3-0.5-0.3-0.9v-3.3c0-0.3,0.1-0.6,0.3-0.9c0.2-0.2,0.5-0.4,0.9-0.4c0.4,0,0.6,0.1,0.9,0.4c0.2,0.2,0.3,0.5,0.3,0.9
					v3.3c0,0.3-0.1,0.6-0.3,0.9C73.4,36.9,73.1,37,72.7,37z M72.7,31.3c-0.3,0-0.6,0.1-0.8,0.3c-0.2,0.2-0.3,0.5-0.3,0.8v3.3
					c0,0.3,0.1,0.6,0.3,0.8l0,0c0.2,0.2,0.4,0.3,0.8,0.3c0.3,0,0.6-0.1,0.8-0.3c0.2-0.2,0.3-0.5,0.3-0.8v-3.3c0-0.3-0.1-0.6-0.3-0.8
					C73.3,31.4,73.1,31.3,72.7,31.3z M72.7,36.5c-0.2,0-0.4-0.1-0.5-0.2c-0.1-0.1-0.2-0.3-0.2-0.5v-3.3c0-0.2,0.1-0.4,0.2-0.6l0,0
					c0.1-0.1,0.3-0.2,0.5-0.2c0.2,0,0.4,0.1,0.5,0.2c0.1,0.2,0.2,0.3,0.2,0.5v3.3c0,0.2-0.1,0.4-0.2,0.6
					C73.1,36.4,73,36.5,72.7,36.5z M72.7,31.8c-0.2,0-0.3,0.1-0.4,0.2l0,0c-0.1,0.1-0.1,0.3-0.1,0.5v3.3c0,0.2,0,0.3,0.1,0.5
					c0.1,0.1,0.2,0.2,0.4,0.2c0.2,0,0.3-0.1,0.4-0.2c0.1-0.1,0.1-0.3,0.1-0.5v-3.3c0-0.2,0-0.3-0.1-0.5C73,31.9,72.9,31.8,72.7,31.8
					z"/>
			</g>
			<g>
				
					<linearGradient id="SVGID_00000175306699901540916440000015700145330222880640_" gradientUnits="userSpaceOnUse" x1="-0.1113" y1="33.3864" x2="97.5491" y2="33.3864">
					<stop  offset="0" style="stop-color:#C20E1A"/>
					<stop  offset="0.1453" style="stop-color:#CD591C"/>
					<stop  offset="0.3073" style="stop-color:#FFED00"/>
					<stop  offset="0.5" style="stop-color:#289548"/>
					<stop  offset="0.6816" style="stop-color:#009DE0"/>
					<stop  offset="0.8547" style="stop-color:#322B80"/>
					<stop  offset="1" style="stop-color:#5D2857"/>
				</linearGradient>
				<path style="fill:url(#SVGID_00000175306699901540916440000015700145330222880640_);" d="M82.1,34.3c-0.1,0.2-0.3,0.4-0.5,0.5
					c-0.2,0.1-0.4,0.2-0.7,0.2h-0.8v1.9h-0.5v-7h1.4c0.4,0,0.7,0.1,0.9,0.3c0.3,0.2,0.4,0.6,0.4,1v2.3C82.2,33.8,82.2,34,82.1,34.3z
					 M81.5,30.6c-0.1-0.2-0.4-0.2-0.6-0.2h-0.8v4.1h0.8c0.2,0,0.4-0.1,0.6-0.3c0.2-0.2,0.3-0.4,0.3-0.7v-2.3
					C81.7,31,81.7,30.8,81.5,30.6z"/>
				
					<linearGradient id="SVGID_00000044893208076756845790000012310294894956124308_" gradientUnits="userSpaceOnUse" x1="-0.1113" y1="33.3864" x2="97.5491" y2="33.3864">
					<stop  offset="0" style="stop-color:#C20E1A"/>
					<stop  offset="0.1453" style="stop-color:#CD591C"/>
					<stop  offset="0.3073" style="stop-color:#FFED00"/>
					<stop  offset="0.5" style="stop-color:#289548"/>
					<stop  offset="0.6816" style="stop-color:#009DE0"/>
					<stop  offset="0.8547" style="stop-color:#322B80"/>
					<stop  offset="1" style="stop-color:#5D2857"/>
				</linearGradient>
				<path style="fill:url(#SVGID_00000044893208076756845790000012310294894956124308_);" d="M80.1,36.9h-0.7v-7.1h1.4
					c0.4,0,0.7,0.1,1,0.4c0.3,0.2,0.4,0.6,0.4,1.1v2.3c0,0.2-0.1,0.5-0.2,0.7c-0.1,0.2-0.3,0.4-0.5,0.6c-0.2,0.1-0.5,0.2-0.8,0.2
					h-0.8V36.9z M79.6,36.8H80v-1.9h0.9c0.3,0,0.5-0.1,0.7-0.2c0.2-0.1,0.3-0.3,0.4-0.5h0c0.1-0.2,0.2-0.4,0.2-0.6v-2.3
					c0-0.4-0.1-0.8-0.4-1c-0.3-0.2-0.6-0.3-0.9-0.3h-1.3V36.8z M80.9,34.6H80v-4.3h0.9c0.3,0,0.5,0.1,0.7,0.3l0,0
					c0.2,0.2,0.2,0.4,0.2,0.7v2.3c0,0.3-0.1,0.5-0.3,0.7C81.3,34.5,81.1,34.6,80.9,34.6z M80.1,34.4h0.8c0.2,0,0.4-0.1,0.5-0.2
					c0.2-0.2,0.2-0.4,0.2-0.6v-2.3c0-0.3-0.1-0.5-0.2-0.6l0,0c-0.1-0.1-0.3-0.2-0.6-0.2h-0.8V34.4z"/>
			</g>
			<g>
				
					<linearGradient id="SVGID_00000142862278621649832580000007307686811842029702_" gradientUnits="userSpaceOnUse" x1="-0.1113" y1="34.087" x2="97.5491" y2="34.087">
					<stop  offset="0" style="stop-color:#C20E1A"/>
					<stop  offset="0.1453" style="stop-color:#CD591C"/>
					<stop  offset="0.3073" style="stop-color:#FFED00"/>
					<stop  offset="0.5" style="stop-color:#289548"/>
					<stop  offset="0.6816" style="stop-color:#009DE0"/>
					<stop  offset="0.8547" style="stop-color:#322B80"/>
					<stop  offset="1" style="stop-color:#5D2857"/>
				</linearGradient>
				<path style="fill:url(#SVGID_00000142862278621649832580000007307686811842029702_);" d="M86,35.4h-0.8L85,36.9h-0.5l0.9-5.6
					h0.6l0.9,5.6h-0.5L86,35.4L86,35.4z M85.8,34.2l-0.2-1.8l-0.2,1.8L85.3,35H86L85.8,34.2z"/>
				
					<linearGradient id="SVGID_00000058580996337495542300000007286173864151958410_" gradientUnits="userSpaceOnUse" x1="-0.1113" y1="34.087" x2="97.5491" y2="34.087">
					<stop  offset="0" style="stop-color:#C20E1A"/>
					<stop  offset="0.1453" style="stop-color:#CD591C"/>
					<stop  offset="0.3073" style="stop-color:#FFED00"/>
					<stop  offset="0.5" style="stop-color:#289548"/>
					<stop  offset="0.6816" style="stop-color:#009DE0"/>
					<stop  offset="0.8547" style="stop-color:#322B80"/>
					<stop  offset="1" style="stop-color:#5D2857"/>
				</linearGradient>
				<path style="fill:url(#SVGID_00000058580996337495542300000007286173864151958410_);" d="M86.8,36.9h-0.7L86,35.5h-0.7l-0.2,1.5
					h-0.7l0.9-5.7H86l0,0.1L86.8,36.9z M86.3,36.8h0.4l-0.8-5.4h-0.4l-0.8,5.4h0.4l0.2-1.5H86v0.1l0.1,0L86.3,36.8z M86,35h-0.9
					l0.1-0.9l0.3-2.3l0.3,2.3L86,35z M85.3,34.9h0.5l-0.1-0.7l-0.2-1.2l-0.2,1.2L85.3,34.9z"/>
			</g>
			<g>
				
					<linearGradient id="SVGID_00000088124200548491828620000005058226940925560224_" gradientUnits="userSpaceOnUse" x1="-0.1113" y1="34.1168" x2="97.5491" y2="34.1168">
					<stop  offset="0" style="stop-color:#C20E1A"/>
					<stop  offset="0.1453" style="stop-color:#CD591C"/>
					<stop  offset="0.3073" style="stop-color:#FFED00"/>
					<stop  offset="0.5" style="stop-color:#289548"/>
					<stop  offset="0.6816" style="stop-color:#009DE0"/>
					<stop  offset="0.8547" style="stop-color:#322B80"/>
					<stop  offset="1" style="stop-color:#5D2857"/>
				</linearGradient>
				<path style="fill:url(#SVGID_00000088124200548491828620000005058226940925560224_);" d="M91,36.6c-0.2,0.2-0.5,0.4-0.8,0.4
					c-0.3,0-0.6-0.1-0.8-0.3c-0.2-0.2-0.3-0.5-0.3-0.9v-4.4h0.5v4.4c0,0.2,0,0.4,0.1,0.5c0.1,0.1,0.2,0.2,0.4,0.2
					c0.4,0,0.6-0.2,0.6-0.7v-4.4h0.5v4.4C91.3,36.1,91.2,36.3,91,36.6z"/>
				
					<linearGradient id="SVGID_00000078016518414487941440000004125690908335567260_" gradientUnits="userSpaceOnUse" x1="-0.1113" y1="34.1168" x2="97.5491" y2="34.1168">
					<stop  offset="0" style="stop-color:#C20E1A"/>
					<stop  offset="0.1453" style="stop-color:#CD591C"/>
					<stop  offset="0.3073" style="stop-color:#FFED00"/>
					<stop  offset="0.5" style="stop-color:#289548"/>
					<stop  offset="0.6816" style="stop-color:#009DE0"/>
					<stop  offset="0.8547" style="stop-color:#322B80"/>
					<stop  offset="1" style="stop-color:#5D2857"/>
				</linearGradient>
				<path style="fill:url(#SVGID_00000078016518414487941440000004125690908335567260_);" d="M90.1,37c-0.4,0-0.6-0.1-0.9-0.4
					c-0.2-0.2-0.3-0.5-0.3-0.9v-4.5h0.7v4.5c0,0.2,0,0.4,0.1,0.5c0.1,0.1,0.2,0.2,0.4,0.2c0.4,0,0.5-0.2,0.5-0.7v-4.5h0.7v4.5
					c0,0.3-0.1,0.6-0.3,0.9l0,0C90.8,36.9,90.5,37,90.1,37z M89.1,31.4v4.3c0,0.3,0.1,0.6,0.3,0.8c0.2,0.2,0.4,0.3,0.8,0.3
					c0.3,0,0.6-0.1,0.8-0.3l0,0c0.2-0.2,0.3-0.5,0.3-0.8v-4.3h-0.4v4.3c0,0.7-0.4,0.8-0.7,0.8c-0.2,0-0.4-0.1-0.5-0.2
					c-0.1-0.2-0.2-0.3-0.2-0.6v-4.3H89.1z"/>
			</g>
			<g>
				
					<linearGradient id="SVGID_00000062163846880330982390000006748734459641830574_" gradientUnits="userSpaceOnUse" x1="-0.1113" y1="34.087" x2="97.5491" y2="34.087">
					<stop  offset="0" style="stop-color:#C20E1A"/>
					<stop  offset="0.1453" style="stop-color:#CD591C"/>
					<stop  offset="0.3073" style="stop-color:#FFED00"/>
					<stop  offset="0.5" style="stop-color:#289548"/>
					<stop  offset="0.6816" style="stop-color:#009DE0"/>
					<stop  offset="0.8547" style="stop-color:#322B80"/>
					<stop  offset="1" style="stop-color:#5D2857"/>
				</linearGradient>
				<path style="fill:url(#SVGID_00000062163846880330982390000006748734459641830574_);" d="M95.5,36.9h-1.7v-5.6h0.5v5.1h1.2V36.9
					z"/>
				
					<linearGradient id="SVGID_00000163036619509035858910000013999694768086818181_" gradientUnits="userSpaceOnUse" x1="-0.1113" y1="34.087" x2="97.5491" y2="34.087">
					<stop  offset="0" style="stop-color:#C20E1A"/>
					<stop  offset="0.1453" style="stop-color:#CD591C"/>
					<stop  offset="0.3073" style="stop-color:#FFED00"/>
					<stop  offset="0.5" style="stop-color:#289548"/>
					<stop  offset="0.6816" style="stop-color:#009DE0"/>
					<stop  offset="0.8547" style="stop-color:#322B80"/>
					<stop  offset="1" style="stop-color:#5D2857"/>
				</linearGradient>
				<path style="fill:url(#SVGID_00000163036619509035858910000013999694768086818181_);" d="M95.5,36.9h-1.8v-5.7h0.7v5.1h1.2V36.9
					z M93.8,36.8h1.6v-0.3h-1.2v-5.1h-0.4V36.8z"/>
			</g>
			<g>
				
					<linearGradient id="SVGID_00000017494899294222857830000010210209151366961028_" gradientUnits="userSpaceOnUse" x1="-0.1113" y1="34.092" x2="97.5491" y2="34.092">
					<stop  offset="0" style="stop-color:#C20E1A"/>
					<stop  offset="0.1453" style="stop-color:#CD591C"/>
					<stop  offset="0.3073" style="stop-color:#FFED00"/>
					<stop  offset="0.5" style="stop-color:#289548"/>
					<stop  offset="0.6816" style="stop-color:#009DE0"/>
					<stop  offset="0.8547" style="stop-color:#322B80"/>
					<stop  offset="1" style="stop-color:#5D2857"/>
				</linearGradient>
				<path style="fill:url(#SVGID_00000017494899294222857830000010210209151366961028_);" d="M98,36.6c-0.2-0.2-0.3-0.5-0.3-0.8
					v-3.3c0-0.3,0.1-0.6,0.3-0.8s0.5-0.3,0.8-0.3c0.3,0,0.6,0.1,0.8,0.3c0.2,0.2,0.3,0.5,0.3,0.8v3.3c0,0.3-0.1,0.6-0.3,0.8
					c-0.2,0.2-0.5,0.4-0.8,0.4C98.5,36.9,98.2,36.8,98,36.6z M98.4,31.9c-0.1,0.1-0.2,0.3-0.2,0.5v3.3c0,0.2,0.1,0.4,0.2,0.5
					c0.1,0.1,0.3,0.2,0.4,0.2c0.2,0,0.3-0.1,0.4-0.2c0.1-0.1,0.1-0.3,0.1-0.5v-3.3c0-0.2,0-0.4-0.1-0.5s-0.2-0.2-0.4-0.2
					C98.6,31.7,98.5,31.8,98.4,31.9z"/>
				
					<linearGradient id="SVGID_00000044869092228297909680000017479475604836331409_" gradientUnits="userSpaceOnUse" x1="-0.1113" y1="34.092" x2="97.5491" y2="34.092">
					<stop  offset="0" style="stop-color:#C20E1A"/>
					<stop  offset="0.1453" style="stop-color:#CD591C"/>
					<stop  offset="0.3073" style="stop-color:#FFED00"/>
					<stop  offset="0.5" style="stop-color:#289548"/>
					<stop  offset="0.6816" style="stop-color:#009DE0"/>
					<stop  offset="0.8547" style="stop-color:#322B80"/>
					<stop  offset="1" style="stop-color:#5D2857"/>
				</linearGradient>
				<path style="fill:url(#SVGID_00000044869092228297909680000017479475604836331409_);" d="M98.8,37c-0.4,0-0.7-0.1-0.9-0.4
					c-0.2-0.2-0.3-0.5-0.3-0.9v-3.3c0-0.3,0.1-0.6,0.3-0.9c0.2-0.2,0.5-0.4,0.9-0.4c0.4,0,0.6,0.1,0.9,0.4c0.2,0.2,0.3,0.5,0.3,0.9
					v3.3c0,0.3-0.1,0.6-0.3,0.9C99.5,36.9,99.2,37,98.8,37z M98.8,31.3c-0.3,0-0.6,0.1-0.8,0.3c-0.2,0.2-0.3,0.5-0.3,0.8v3.3
					c0,0.3,0.1,0.6,0.3,0.8l0,0c0.2,0.2,0.4,0.3,0.8,0.3c0.3,0,0.6-0.1,0.8-0.3c0.2-0.2,0.3-0.5,0.3-0.8v-3.3c0-0.3-0.1-0.6-0.3-0.8
					C99.4,31.4,99.1,31.3,98.8,31.3z M98.8,36.5c-0.2,0-0.4-0.1-0.5-0.2c-0.1-0.1-0.2-0.3-0.2-0.5v-3.3c0-0.2,0.1-0.4,0.2-0.6l0,0
					c0.1-0.1,0.3-0.2,0.5-0.2c0.2,0,0.4,0.1,0.5,0.2c0.1,0.2,0.2,0.3,0.2,0.5v3.3c0,0.2-0.1,0.4-0.2,0.6
					C99.2,36.4,99,36.5,98.8,36.5z M98.8,31.8c-0.2,0-0.3,0.1-0.4,0.2l0,0c-0.1,0.1-0.1,0.3-0.1,0.5v3.3c0,0.2,0,0.3,0.1,0.5
					c0.1,0.1,0.2,0.2,0.4,0.2c0.2,0,0.3-0.1,0.4-0.2c0.1-0.1,0.1-0.3,0.1-0.5v-3.3c0-0.2,0-0.3-0.1-0.5C99.1,31.9,99,31.8,98.8,31.8
					z"/>
			</g>
		</g>
		<path class="st40" d="M93.8,24.8v-2.6h-2.6V7.8c0,0,0-2.2-2.2-2.2c-2.1,0-2,0.9-2,0.9h-4v6.4h-0.9v1.4h-1.3v0.5h-0.7v3.7h-1.3
			v-2.8h-0.5v-1.1h-1.3V15h-1.9V0.4h-0.3v0.4h-4.6V0.4L69.7,0h-2.6v1.5h-0.6v13.3H64v5.9h-2.2V15h-2v-5h-0.4v5.2h-1.3v1.1h-3.7v-0.7
			h-3.8v0.8h-0.9v0.8H49v-0.7h-1.1v-1.1h-0.6v1.1h-2v0.7h-1V19h-2.1v-4.4H41v0.2h-1.9v2.7h-0.7v-2.9h-1.3v-0.7h-2.2v0.6h-1.1v1h-1.8
			v1h-1.2v-0.8h-2.1v-0.8h-1v1.2H26v1.1h-1.1V16l-0.3-0.3v-3.4h-3.7v0.9h-1.3v-1h-3.3v2.4h-1.7v-0.9H13v0.8h-2.9v-1.4H7.5v8H4.9v4.1
			H0l0.1,3.3h99.5v-3.7H93.8z M17,20h-0.3v-0.5H17V20z M17,18.7h-0.3v-0.5H17V18.7z M17,17.4h-0.3v-0.5H17V17.4z M17,16.1h-0.3v-0.5
			H17V16.1z M17,14.8h-0.3v-0.5H17V14.8z M17,13.5h-0.3V13H17V13.5z M17.6,19.9h-0.3v-0.5h0.3V19.9z M17.6,18.6h-0.3v-0.5h0.3V18.6z
			 M17.6,17.3h-0.3v-0.5h0.3V17.3z M17.6,16h-0.3v-0.5h0.3V16z M17.6,14.7h-0.3v-0.5h0.3V14.7z M17.6,13.4h-0.3v-0.5h0.3V13.4z
			 M18.2,19.9h-0.3v-0.5h0.3V19.9z M18.2,18.6h-0.3v-0.5h0.3V18.6z M18.2,17.3h-0.3v-0.5h0.3V17.3z M18.2,16h-0.3v-0.5h0.3V16z
			 M18.2,14.7h-0.3v-0.5h0.3V14.7z M18.2,13.4h-0.3v-0.5h0.3V13.4z M24.3,18h-2.5v-0.4h2.5V18z M24.3,17h-2.5v-0.4h2.5V17z M24.3,16
			h-2.5v-0.4h2.5V16z M24.3,15h-2.5v-0.4h2.5V15z M24.3,14h-2.5v-0.4h2.5V14z M24.3,13h-2.5v-0.4h2.5V13z M35.3,18.5h-0.6v-0.4h0.6
			V18.5z M35.3,17.5h-0.6v-0.4h0.6V17.5z M35.3,16.6h-0.6v-0.4h0.6V16.6z M35.3,15.6h-0.6v-0.4h0.6V15.6z M36.6,18.4H36v-0.4h0.6
			V18.4z M36.6,17.4H36V17h0.6V17.4z M36.6,16.6H36v-0.4h0.6V16.6z M36.6,15.6H36v-0.4h0.6V15.6z M37.8,18.4h-0.6v-0.4h0.6V18.4z
			 M37.8,17.4h-0.6V17h0.6V17.4z M37.8,16.6h-0.6v-0.4h0.6V16.6z M37.8,15.6h-0.6v-0.4h0.6V15.6z M59.6,23.1h-0.3v-0.5h0.3V23.1z
			 M59.6,21.8h-0.3v-0.5h0.3V21.8z M59.6,20.4h-0.3v-0.5h0.3V20.4z M59.6,19.1h-0.3v-0.5h0.3V19.1z M59.6,17.9h-0.3v-0.5h0.3V17.9z
			 M59.6,16.5h-0.3V16h0.3V16.5z M60.3,23H60v-0.5h0.3V23z M60.3,21.7H60v-0.5h0.3V21.7z M60.3,20.4H60v-0.5h0.3V20.4z M60.3,19H60
			v-0.5h0.3V19z M60.3,17.8H60v-0.5h0.3V17.8z M60.3,16.4H60v-0.5h0.3V16.4z M60.9,23h-0.3v-0.5h0.3V23z M60.9,21.7h-0.3v-0.5h0.3
			V21.7z M60.9,20.4h-0.3v-0.5h0.3V20.4z M60.9,19h-0.3v-0.5h0.3V19z M60.9,17.8h-0.3v-0.5h0.3V17.8z M60.9,16.4h-0.3v-0.5h0.3V16.4
			z M69.6,15.7h-1.9v-0.4h1.9V15.7z M69.6,14.7h-1.9v-0.4h1.9V14.7z M69.6,13.6h-1.9v-0.4h1.9V13.6z M69.6,12.7h-1.9v-0.4h1.9V12.7z
			 M69.6,11.7h-1.9v-0.4h1.9V11.7z M69.6,10.7h-1.9v-0.4h1.9V10.7z M69.6,9.7h-1.9V9.3h1.9V9.7z M69.6,8.8h-1.9V8.4h1.9V8.8z
			 M69.6,7.8h-1.9V7.4h1.9V7.8z M69.6,6.8h-1.9V6.4h1.9V6.8z M69.6,5.8h-1.9V5.4h1.9V5.8z M69.6,4.8h-1.9V4.4h1.9V4.8z M69.6,3.8
			h-1.9V3.4h1.9V3.8z M69.6,2.8h-1.9V2.4h1.9V2.8z M69.6,1.8h-1.9V1.4h1.9V1.8z M74.9,15.7h-4.6v-0.4h4.6V15.7z M74.9,14.7h-4.6
			v-0.4h4.6V14.7z M74.9,13.6h-4.6v-0.4h4.6V13.6z M74.9,12.6h-4.6v-0.4h4.6V12.6z M74.9,11.7h-4.6v-0.4h4.6V11.7z M74.9,10.7h-4.6
			v-0.4h4.6V10.7z M74.9,9.7h-4.6V9.3h4.6V9.7z M74.9,8.6h-4.6V8.2h4.6V8.6z M74.9,7.8h-4.6V7.4h4.6V7.8z M74.9,6.8h-4.6V6.4h4.6
			V6.8z M74.9,5.8h-4.6V5.4h4.6V5.8z M74.9,4.7h-4.6V4.4h4.6V4.7z M74.9,3.8h-4.6V3.4h4.6V3.8z M74.9,2.8h-4.6V2.4h4.6V2.8z
			 M74.9,1.8h-4.6V1.4h4.6V1.8z M84.1,14.1h-0.3v-0.5h0.3V14.1z M84.1,12.8h-0.3v-0.5h0.3V12.8z M84.1,11.5h-0.3V11h0.3V11.5z
			 M84.1,10.2h-0.3V9.7h0.3V10.2z M84.1,8.9h-0.3V8.4h0.3V8.9z M84.1,7.6h-0.3V7.1h0.3V7.6z M84.8,14.1h-0.3v-0.5h0.3V14.1z
			 M84.8,12.8h-0.3v-0.5h0.3V12.8z M84.8,11.5h-0.3V11h0.3V11.5z M84.8,10.2h-0.3V9.7h0.3V10.2z M84.8,8.9h-0.3V8.4h0.3V8.9z
			 M84.8,7.6h-0.3V7.1h0.3V7.6z M85.5,14.1h-0.3v-0.5h0.3V14.1z M85.5,12.8h-0.3v-0.5h0.3V12.8z M85.5,11.5h-0.3V11h0.3V11.5z
			 M85.5,10.2h-0.3V9.7h0.3V10.2z M85.5,8.9h-0.3V8.4h0.3V8.9z M85.5,7.6h-0.3V7.1h0.3V7.6z M86.7,14.1h-0.2v-0.5h0.2V14.1z
			 M86.7,12.8h-0.2v-0.5h0.2V12.8z M86.7,11.5h-0.2V11h0.2V11.5z M86.7,10.2h-0.2V9.7h0.2V10.2z M86.7,8.9h-0.2V8.4h0.2V8.9z
			 M86.7,7.6h-0.2V7.1h0.2V7.6z M87.2,14.1H87v-0.5h0.2V14.1z M87.2,12.8H87v-0.5h0.2V12.8z M87.2,11.5H87V11h0.2V11.5z M87.2,10.2
			H87V9.7h0.2V10.2z M87.2,8.9H87V8.4h0.2V8.9z M87.2,7.6H87V7.1h0.2V7.6z"/>
		<g id="XMLID_1_">
			<g>
				<path class="st41" d="M30.9,19.8v-0.1c0,0-0.1-0.1,0-0.2c0,0,0.2-0.1,0.3-0.2c0.1-0.1,0.2-0.1,0.2-0.1V19h-0.1v-0.2h0.1v-0.1
					h0.6c0,0,0.1-0.6,0.7-0.6c0.6,0,0.7,0.6,0.7,0.6h0.6v0.1h0.1V19h-0.1v0.1c0,0,0.4,0.3,0.5,0.3c0.1,0.1,0,0.2,0,0.2v0h-0.1h-3.3
					L30.9,19.8L30.9,19.8z M32.9,18.9c0-0.2-0.1-0.4-0.3-0.4s-0.3,0.2-0.3,0.4c0,0.2,0.1,0.4,0.3,0.4S32.9,19.2,32.9,18.9z"/>
				<path class="st41" d="M21.4,19.7v0.1h-0.1L21.4,19.7c-0.1,0-0.2-0.1-0.1-0.2c0.1-0.1,0.5-0.3,0.5-0.3V19h-0.1v-0.2h0.1v-0.1h0.6
					c0,0,0.1-0.6,0.7-0.6c0.6,0,0.7,0.6,0.7,0.6h0.6v0.1h0.1V19h-0.1v0.1c0,0,0.1,0.1,0.2,0.1c0.1,0.1,0.2,0.2,0.3,0.2
					c0.1,0.1,0,0.2,0,0.2v0h-0.1H21.4z M23.3,18.9c0-0.2-0.1-0.4-0.3-0.4c-0.2,0-0.3,0.2-0.3,0.4c0,0.2,0.1,0.4,0.3,0.4
					C23.2,19.3,23.3,19.2,23.3,18.9z"/>
				<path class="st41" d="M31.1,19.2c-0.1,0.1-0.2,0.2-0.3,0.2c-0.1,0.1,0,0.2,0,0.2v0.1v0c0,0-0.1,0.1-0.1,0.2s0.1,0.2,0.1,0.2v0.4
					h-0.3v0.7h-0.2v0.1c-0.1,0-0.1,0-0.2,0c-0.2,0-0.4,0.1-0.5,0.2c-0.1,0.1-0.2,0.3-0.2,0.5v1.6h-1v-1.5c0-0.2-0.1-0.4-0.2-0.5
					c-0.1-0.1-0.3-0.2-0.5-0.2c-0.4,0-0.7,0.3-0.7,0.7v1.5h-0.8v-1.6c0-0.2-0.1-0.4-0.2-0.5s-0.3-0.2-0.5-0.2c-0.1,0-0.1,0-0.2,0
					v-0.1h-0.2v-0.7h-0.3v-0.4c0,0,0.1-0.1,0.1-0.2s-0.1-0.2-0.1-0.2v-0.1v0c0,0,0.1-0.1,0-0.2c0,0-0.2-0.1-0.3-0.2h1.6v-0.1h0.9
					v0.1H28h0.3h0.3v-0.1h0.9v0.1H31.1z M29.3,21.3c0-0.2-0.1-0.3-0.3-0.3c-0.1,0-0.3,0.2-0.3,0.3c0,0.2,0.1,0.3,0.3,0.3
					C29.2,21.6,29.3,21.5,29.3,21.3z M26.8,21.3c0-0.2-0.1-0.3-0.3-0.3c-0.1,0-0.3,0.2-0.3,0.3c0,0.2,0.1,0.3,0.3,0.3
					C26.7,21.6,26.8,21.5,26.8,21.3z"/>
				<path class="st41" d="M36.5,27.9h1v-2.1c0-0.3-0.2-0.6-0.5-0.6c-0.1,0-0.3,0.1-0.4,0.2c-0.1,0.1-0.1,0.3-0.1,0.4V27.9z
					 M19.3,27.9h-2v-3.7h3.6v-2.4l-0.2-0.2v-0.1H21v-0.7h0.3v-0.4c0,0-0.1-0.1-0.1-0.2s0.1-0.2,0.1-0.2v0h0.1h3.3v-0.1h0.1v0.1
					c0,0,0.1,0.1,0.1,0.2s-0.1,0.2-0.1,0.2v0.4h0.3v0.7h0.2v0.1c-0.3,0.1-0.5,0.4-0.5,0.7v1.6h1.4H27h1.4h1h1.4v-1.6
					c0-0.3-0.2-0.6-0.5-0.7v-0.1h0.2v-0.7h0.3v-0.4c0,0-0.1-0.1-0.1-0.2s0.1-0.2,0.1-0.2v0h0.1h3.3v-0.1h0.1v0.1
					c0,0,0.1,0.1,0.1,0.2s-0.1,0.2-0.1,0.2v0.4h0.3v0.7h0.2v0.1l-0.2,0.2v2.4h3.6v3.7h-2l0.6,0.6h-0.9l-1.5-1.2h-0.8l1.2,1.2H20.7
					l1.2-1.2H21l-1.5,1.2h-0.9L19.3,27.9z M19.1,27.9v-2.1c0-0.2-0.1-0.3-0.1-0.4c-0.1-0.1-0.2-0.2-0.4-0.2c-0.3,0-0.5,0.3-0.5,0.6
					v2.1H19.1z M35.7,27.5v-2.8h-1.2v2.2L35.7,27.5z M33.9,27.1v-2.6h-0.2v2.6H33.9z M33.4,20.7v-0.2h-1.6v0.2H33.4z M33.3,23.8
					v-1.5c0-0.4-0.3-0.7-0.7-0.7c-0.2,0-0.4,0.1-0.5,0.2s-0.2,0.3-0.2,0.5v1.5H33.3z M33.1,27.2v-1.5c0-0.3-0.2-0.5-0.4-0.5
					c-0.1,0-0.2,0.1-0.3,0.1c-0.1,0.1-0.1,0.2-0.1,0.3v1.5H33.1z M31.3,27.1v-2.6h-0.2v2.6H31.3z M30.5,27.2v-1.5
					c0-0.3-0.2-0.5-0.4-0.5c-0.1,0-0.2,0.1-0.3,0.1c-0.1,0.1-0.1,0.2-0.1,0.3v1.5H30.5z M29.2,27.1v-2.6H29v2.6H29.2z M28.2,27.2
					v-1.5c0-0.3-0.2-0.5-0.4-0.5c-0.1,0-0.2,0.1-0.3,0.1c-0.1,0.1-0.1,0.2-0.1,0.3v1.5H28.2z M26.6,27.1v-2.6h-0.2v2.6H26.6z
					 M25.9,27.2v-1.5c0-0.1,0-0.2-0.1-0.3c-0.1-0.1-0.2-0.1-0.3-0.1c-0.2,0-0.4,0.2-0.4,0.5v1.5H25.9z M24.5,27.1v-2.6h-0.2v2.6
					H24.5z M23.8,20.7v-0.2h-1.6v0.2H23.8z M23.7,23.8v-1.5c0-0.2-0.1-0.4-0.2-0.5c-0.1-0.1-0.3-0.2-0.5-0.2c-0.4,0-0.7,0.3-0.7,0.7
					v1.5H23.7z M23.3,27.2v-1.5c0-0.1,0-0.2-0.1-0.3c-0.1-0.1-0.2-0.1-0.3-0.1c-0.2,0-0.4,0.2-0.4,0.5v1.5H23.3z M21.9,27.1v-2.6
					h-0.2v2.6H21.9z M21.1,26.8v-2.2h-1.2v2.8L21.1,26.8z"/>
			</g>
		</g>
		<g id="XMLID_2_">
			<g>
				<path class="st41" d="M88.5,21c0,0.6,0.5,1.2,1.2,1.2v0.3h0v0h-1.4V21H88.5z"/>
				<path class="st41" d="M91.1,19.5V21h-0.3c0-0.6-0.5-1.2-1.2-1.2s-1.2,0.5-1.2,1.2h-0.3v-1.5l1.4-2.3L91.1,19.5z"/>
				<path class="st41" d="M91.1,21v1.4h-1.4v-0.3c0.6,0,1.2-0.5,1.2-1.2H91.1z"/>
				<path class="st41" d="M89.7,23.2L89.7,23.2l1.4,0v1l-0.2,0c-0.5-0.5-1.1-0.8-1.2-0.8c0,0,0,0,0,0V23.2z"/>
				<path class="st41" d="M89.7,23.4c-0.1,0-0.7,0.2-1.3,0.9l-0.1-0.1v-1h1.4L89.7,23.4C89.7,23.4,89.7,23.4,89.7,23.4z"/>
				<path class="st41" d="M89.7,24.7c-0.1,0-0.5,0.2-0.5,1v1.5h-0.9v0v-2.4c0,0,0.6-1,1.4-1.1c0.8,0.2,1.4,1.1,1.4,1.1v2.4v0h-0.9
					v-1.5C90.2,24.9,89.8,24.8,89.7,24.7z"/>
				<path class="st41" d="M84.6,24.1v3.2h0.5v-3.2l-0.3-0.4L84.6,24.1z M84.5,22.7h0.2h0.5v-2.4l-0.4-0.5l-0.3,0.5V22.7z M93.2,19.6
					l-0.4,0.6v2.8h0.4h0h0.4v-2.8L93.2,19.6z M93.2,23.4l-0.3,0.5V26h0.3h0h0.3v-2.1L93.2,23.4z M89.7,27.3L89.7,27.3l0.5,0h0.9h0.2
					v-2.5c-0.1-0.2-0.3-0.4-0.4-0.6l0.2,0h0.2V23h-1.6v0h-1.6v1.1h0.2l0.1,0.1c-0.1,0.2-0.3,0.3-0.4,0.5v2.5h0.2h0.9H89.7z
					 M86.1,23.4l-0.3,0.5V26h0.3h0h0.3v-2.1L86.1,23.4z M86.1,19.6l-0.4,0.6v2.8h0.4h0h0.4v-2.8L86.1,19.6z M94.8,27.2v-3.2
					l-0.2-0.4l-0.3,0.4v3.2H94.8z M94.9,22.7v-2.5l-0.3-0.5l-0.4,0.5v2.4h0.5H94.9z M84.4,22.8v-3.6h-0.2v-0.3h0.3h0.2v0.2H88
					l0.2,0.1l-0.1,0.2v3.3h1.6v0h1.6v-3.3l-0.1-0.2l0.2-0.1h3.4v-0.2h0.2h0.3v0.3H95v3.6h0.2v0.3H95v4.1h0.2v0.3H95V28h-2.4v0.5h-3
					v0h-2.9V28h-2.4v-0.5h-0.2v-0.3h0.2v-4.1h-0.2v-0.3H84.4z M92.2,22.7v-2.4l-0.4-0.5l-0.3,0.5v2.5h0.2H92.2z M92.2,27.2v-3.2
					l-0.3-0.4l-0.2,0.4v3.2H92.2z M87.8,22.7v-2.5l-0.3-0.5l-0.4,0.5v2.4h0.5H87.8z M87.7,27.2v-3.2l-0.2-0.4l-0.3,0.4v3.2H87.7z"/>
				<path class="st41" d="M93,14.3c0-0.1,0.1-0.2,0.2-0.2c0.1,0,0.2,0.1,0.2,0.2s-0.1,0.2-0.2,0.2C93.1,14.6,93,14.5,93,14.3z"/>
				<path class="st41" d="M86.1,14.1c0.1,0,0.2,0.1,0.2,0.2s-0.1,0.2-0.2,0.2c-0.1,0-0.2-0.1-0.2-0.2S86,14.1,86.1,14.1z"/>
				<path class="st41" d="M86.1,13.5l-0.4,0.6v3.3h0.4h0h0.4v-3.3L86.1,13.5z M93.2,13.5l-0.4,0.6v3.3h0.4h0h0.4v-3.3L93.2,13.5z
					 M89.7,16.8l-1.5,2.4L88,19.1v-0.2h-3.4h-0.2v-1.6h0.1v-1.2h0.1v-2.7l0.4-1.6l0.4,0.9l0.6-0.9l0.6,0.9l0.4-0.9l0.4,1.6v2.7h0.1
					v1.2h0.1l1.1-0.5v-0.8L89,16c0,0,0-0.3,0.3-0.3l0.6,0c0.3,0,0.3,0.3,0.3,0.3l0.1-0.1v0.8l1.1,0.5h0.1v-1.2h0.1v-2.7l0.4-1.6
					l0.4,0.9l0.6-0.9l0.6,0.9l0.4-0.9l0.4,1.6v2.7h0.1v1.2h0.1v1.6h-0.2h-3.4v0.2l-0.2,0.1L89.7,16.8z M94.4,16.1v-2l-0.2-0.4
					L94,14.2v3.6h0.1v-0.6h0.2v-1.1H94.4z M94.4,13.1c0-0.1-0.1-0.2-0.2-0.2c-0.1,0-0.2,0.1-0.2,0.2c0,0.1,0.1,0.2,0.2,0.2
					C94.3,13.3,94.4,13.2,94.4,13.1z M93.5,13c0-0.2-0.1-0.3-0.3-0.3c-0.2,0-0.3,0.1-0.3,0.3c0,0.2,0.1,0.3,0.3,0.3
					C93.4,13.3,93.5,13.1,93.5,13z M92.5,17.8v-3.6l-0.2-0.5L92,14.1v2h0.1v1.1h0.2v0.6H92.5z M92.4,13.1c0-0.1-0.1-0.2-0.2-0.2
					c-0.1,0-0.2,0.1-0.2,0.2c0,0.1,0.1,0.2,0.2,0.2C92.3,13.3,92.4,13.2,92.4,13.1z M87.3,16.1v-2l-0.2-0.4l-0.2,0.5v3.6H87v-0.6
					h0.2v-1.1H87.3z M87.3,13.1c0-0.1-0.1-0.2-0.2-0.2C87,12.9,87,13,87,13.1c0,0.1,0.1,0.2,0.2,0.2C87.2,13.3,87.3,13.2,87.3,13.1z
					 M86.4,13c0-0.2-0.1-0.3-0.3-0.3c-0.2,0-0.3,0.1-0.3,0.3s0.1,0.3,0.3,0.3C86.3,13.3,86.4,13.1,86.4,13z M85.4,17.8v-3.6
					l-0.2-0.5l-0.2,0.4v2H85v1.1h0.2v0.6H85.4z M85.3,13.1c0-0.1-0.1-0.2-0.2-0.2s-0.2,0.1-0.2,0.2c0,0.1,0.1,0.2,0.2,0.2
					S85.3,13.2,85.3,13.1z"/>
				<polygon class="st41" points="93.2,11.5 92.6,12.4 92.3,11.8 93.2,6.9 94.1,11.8 93.8,12.4 				"/>
				<polygon class="st41" points="86.1,11.5 85.5,12.4 85.2,11.8 86.1,6.9 87,11.8 86.7,12.4 				"/>
			</g>
		</g>
		<g>
			<path class="st41" d="M5.8,4.6l4,8.3l0,0.1v15.6h1.4V12.8l0,0l4-8.2H5.8z M11,22.7h-0.9v-0.5H11V22.7z M11,21.9h-0.9v-0.5H11
				V21.9z M11,21h-0.9v-0.5H11V21z M11,20.1h-0.9v-0.5H11V20.1z M11,19.2h-0.9v-0.5H11V19.2z M11,18.3h-0.9v-0.5H11V18.3z M11,17.4
				h-0.9v-0.5H11V17.4z M11,16.5h-0.9V16H11V16.5z M11,15.6h-0.9v-0.5H11V15.6z M11,14.7h-0.9v-0.5H11V14.7z M11,13.8h-0.9v-0.5H11
				V13.8z M10,12.7v-0.5h1.2v0.5H10z M11.5,11.9H9.6v-0.5h1.9V11.9z M11.8,11H9.2v-0.5h2.6V11z M12.2,10.2H8.9V9.7h3.3V10.2z
				 M12.5,9.4H8.6V8.9h3.9V9.4z M12.8,8.5H8.3V8h4.5V8.5z M13,7.7H8.1V7.2H13V7.7z"/>
			<rect x="7.1" y="3.7" class="st41" width="6.8" height="0.6"/>
			<path class="st41" d="M5.4,4.6v23.9h4.1V13L5.4,4.6z M5.7,7.1h0.8v0.5H5.7V7.1z M5.7,8h1.2v0.5H5.7V8z M5.7,8.8h1.7v0.5H5.7V8.8z
				 M5.7,9.8h2.1v0.5H5.7V9.8z M5.7,10.5h2.4V11H5.7V10.5z M5.7,11.4h2.9v0.5H5.7V11.4z M5.7,12.3H9v0.5H5.7V12.3z M9.3,26.1H5.7
				v-0.5h3.6V26.1z M9.3,25.2H5.7v-0.5h3.6V25.2z M9.3,24.3H5.7v-0.5h3.6V24.3z M9.3,23.4H5.7v-0.5h3.6V23.4z M9.3,22.5H5.7V22h3.6
				V22.5z M9.3,21.6H5.7v-0.5h3.6V21.6z M9.3,20.7H5.7v-0.5h3.6V20.7z M9.3,19.8H5.7v-0.5h3.6V19.8z M9.3,18.9H5.7v-0.5h3.6V18.9z
				 M9.3,18H5.7v-0.5h3.6V18z M9.3,17.1H5.7v-0.5h3.6V17.1z M9.3,16.3H5.7v-0.5h3.6V16.3z M9.3,15.4H5.7v-0.5h3.6V15.4z M9.3,14.5
				H5.7V14h3.6V14.5z M9.3,13.6H5.7v-0.5h3.6V13.6z"/>
			<path class="st41" d="M15.6,4.6L11.5,13v15.4h-0.3v0h4.4L15.6,4.6L15.6,4.6z M15.4,26h-3.6v-0.5h3.6V26z M15.4,25.1h-3.6v-0.5
				h3.6V25.1z M15.4,24.2h-3.6v-0.5h3.6V24.2z M15.4,23.3h-3.6v-0.5h3.6V23.3z M15.4,22.4h-3.6V22h3.6V22.4z M15.4,21.6h-3.6v-0.5
				h3.6V21.6z M15.4,20.7h-3.6v-0.5h3.6V20.7z M15.4,19.8h-3.6v-0.5h3.6V19.8z M15.4,18.9h-3.6v-0.5h3.6V18.9z M15.4,18h-3.6v-0.5
				h3.6V18z M15.4,17.1h-3.6v-0.5h3.6V17.1z M15.4,16.2h-3.6v-0.5h3.6V16.2z M15.4,15.3h-3.6v-0.5h3.6V15.3z M15.4,14.4h-3.6v-0.5
				h3.6V14.4z M15.4,13.5h-3.6V13h3.6V13.5z M15.4,12.7h-3.3v-0.5h3.3V12.7z M15.4,11.8h-2.9v-0.5h2.9V11.8z M15.4,11H13v-0.5h2.4
				V11z M15.4,10.2h-2.1V9.7h2.1V10.2z M15.4,9.3h-1.7V8.8h1.7V9.3z M15.4,8.5h-1.2V8h1.2V8.5z M15.4,7.6h-0.8V7.1h0.8V7.6z"/>
		</g>
		<g>
			<polygon class="st41" points="55.5,17.2 55.5,18.8 55.3,18.8 55,18.8 54.8,18.8 54.8,17.2 			"/>
			<polygon class="st41" points="54.8,17.2 54.8,18.8 51.7,28.4 49.7,28.4 53.8,17.2 52.2,10.4 53.2,10.8 54,13.8 54.2,14.6 			"/>
			<g>
				<polygon class="st41" points="45.5,28.5 45.4,28.4 52.6,12 52.7,12.1 				"/>
			</g>
			<g>
				
					<rect x="41.2" y="20.6" transform="matrix(0.3803 -0.9248 0.9248 0.3803 11.6591 58.6796)" class="st41" width="16.8" height="0.1"/>
			</g>
			<g>
				
					<rect x="42.4" y="21.1" transform="matrix(0.3588 -0.9334 0.9334 0.3588 12.5015 60.4346)" class="st41" width="15.7" height="0.1"/>
			</g>
			<g>
				
					<rect x="43.5" y="21.5" transform="matrix(0.331 -0.9436 0.9436 0.331 13.685 62.3473)" class="st41" width="14.6" height="0.1"/>
			</g>
			<g>
				
					<rect x="54.1" y="11.6" transform="matrix(0.8182 -0.5749 0.5749 0.8182 2.4845 33.4643)" class="st41" width="0.1" height="2.4"/>
			</g>
			<g>
				
					<rect x="54" y="12.4" transform="matrix(0.8272 -0.5619 0.5619 0.8272 1.9385 32.6648)" class="st41" width="0.1" height="1.5"/>
			</g>
			<polygon class="st41" points="60.6,28.4 58.6,28.4 55.5,18.8 55.5,17.2 56.2,14.6 56.4,13.8 57.1,10.8 58.1,10.4 56.5,17.2 			
				"/>
			<polygon class="st41" points="56.4,13.8 56.2,14.6 56.1,14.6 55.3,14.6 55,14.6 54.2,14.6 54.2,14.6 54,13.8 55,13.8 55.3,13.8 
							"/>
			<g>
				<polygon class="st41" points="64.8,28.5 65,28.4 57.8,12 57.7,12.1 				"/>
			</g>
			<g>
				
					<rect x="60.7" y="12.2" transform="matrix(0.9248 -0.3804 0.3804 0.9248 -3.287 24.6506)" class="st41" width="0.1" height="16.8"/>
			</g>
			<g>
				
					<rect x="60" y="13.3" transform="matrix(0.9334 -0.3588 0.3588 0.9334 -3.576 22.9707)" class="st41" width="0.1" height="15.7"/>
			</g>
			<g>
				
					<rect x="59.5" y="14.2" transform="matrix(0.9436 -0.331 0.331 0.9436 -3.7691 20.9163)" class="st41" width="0.1" height="14.6"/>
			</g>
			<g>
				
					<rect x="55" y="12.7" transform="matrix(0.5749 -0.8182 0.8182 0.5749 13.4027 51.4085)" class="st41" width="2.4" height="0.1"/>
			</g>
			<g>
				
					<rect x="55.5" y="13.1" transform="matrix(0.5619 -0.8272 0.8272 0.5619 13.7421 52.313)" class="st41" width="1.5" height="0.1"/>
			</g>
		</g>
		<polygon class="st41" points="42.1,28.5 42.1,26.6 41.1,26.6 41.1,28.5 39.2,28.5 40.2,8.8 41.6,6.9 43.1,8.8 44,28.5 		"/>
		<g>
			<path class="st41" d="M83.2,20.6V20l0.2-0.3H65.7l0.2,0.3v0.6c-0.2,0.1-0.2,0.4-0.2,0.4H66v0.2h0.2v7.3H67v-7.3h0.3V21h0.4v7.4h1
				V21h0.1v7.4h0.7V21h0.1v7.4h2.9v-5h4.1v5h2.9V21h0.1v7.4h0.7V21h0.1v7.4h1V21h0.4v0.1h0.3v7.3h0.7v-7.3h0.2V21h0.3
				C83.4,21,83.4,20.7,83.2,20.6z M83,20.6H66v-0.2h17V20.6z"/>
			<polygon class="st41" points="71.7,19.6 71.2,19.6 71.4,19.3 			"/>
			<polygon class="st41" points="67.2,19.6 66.8,19.6 67,19.3 			"/>
			<polygon class="st41" points="69.9,19.6 69.4,19.6 69.7,19.3 			"/>
			<polygon class="st41" points="71.2,19.6 70.8,19.6 71,19.3 			"/>
			<polygon class="st41" points="72.1,19.6 71.7,19.6 71.9,19.3 			"/>
			<polygon class="st41" points="72.6,19.6 72.1,19.6 72.3,19.3 			"/>
			<polygon class="st41" points="68.6,19.6 68.1,19.6 68.3,19.3 			"/>
			<polygon class="st41" points="66.8,19.6 66.3,19.6 66.5,19.3 			"/>
			<polygon class="st41" points="67.7,19.6 67.2,19.6 67.4,19.3 			"/>
			<polygon class="st41" points="69,19.6 68.6,19.6 68.8,19.3 			"/>
			<polygon class="st41" points="69.4,19.6 69,19.6 69.2,19.3 			"/>
			<polygon class="st41" points="70.3,19.6 69.9,19.6 70.1,19.3 			"/>
			<polygon class="st41" points="66.3,19.6 65.9,19.6 66.1,19.3 			"/>
			<polygon class="st41" points="70.8,19.6 70.3,19.6 70.6,19.3 			"/>
			<polygon class="st41" points="68.1,19.6 67.7,19.6 67.9,19.3 			"/>
			<polygon class="st41" points="73.5,19.6 73,19.6 73.2,19.3 			"/>
			<polygon class="st41" points="73.9,19.6 73.5,19.6 73.7,19.3 			"/>
			<polygon class="st41" points="73,19.6 72.6,19.6 72.8,19.3 			"/>
			<polygon class="st41" points="74.7,19.6 74.7,19.6 74.3,19.6 74.3,19.6 74.5,19.3 74.5,19.3 74.6,19.3 			"/>
			<polygon class="st41" points="78.7,19.6 78.3,19.6 78.5,19.3 			"/>
			<polygon class="st41" points="80,19.6 79.6,19.6 79.8,19.3 			"/>
			<polygon class="st41" points="76.5,19.6 76,19.6 76.3,19.3 			"/>
			<polygon class="st41" points="76.9,19.6 76.5,19.6 76.7,19.3 			"/>
			<polygon class="st41" points="77.4,19.6 76.9,19.6 77.1,19.3 			"/>
			<polygon class="st41" points="77.8,19.6 77.4,19.6 77.6,19.3 			"/>
			<polygon class="st41" points="74.3,19.6 74.2,19.6 73.9,19.6 74.1,19.3 			"/>
			<polygon class="st41" points="75.1,19.6 74.8,19.6 74.7,19.6 74.9,19.3 			"/>
			<polygon class="st41" points="75.6,19.6 75.1,19.6 75.4,19.3 			"/>
			<polygon class="st41" points="76,19.6 75.6,19.6 75.8,19.3 			"/>
			<polygon class="st41" points="78.3,19.6 77.8,19.6 78,19.3 			"/>
			<polygon class="st41" points="79.1,19.6 78.7,19.6 78.9,19.3 			"/>
			<polygon class="st41" points="79.6,19.6 79.1,19.6 79.4,19.3 			"/>
			<polygon class="st41" points="80.5,19.6 80,19.6 80.3,19.3 			"/>
			<polygon class="st41" points="80.9,19.6 80.5,19.6 80.7,19.3 			"/>
			<polygon class="st41" points="81.4,19.6 80.9,19.6 81.2,19.3 			"/>
			<polygon class="st41" points="81.8,19.6 81.4,19.6 81.6,19.3 			"/>
			<polygon class="st41" points="82.7,19.6 82.3,19.6 82.5,19.3 			"/>
			<polygon class="st41" points="83.2,19.6 82.7,19.6 82.9,19.3 			"/>
			<polygon class="st41" points="82.3,19.6 81.8,19.6 82,19.3 			"/>
			<path class="st41" d="M76.1,23.9v4.5l-0.8-0.4V26c0,0-0.1-0.7-0.8-0.7c-0.7,0-0.8,0.7-0.8,0.7v2.1L73,28.5v-4.5H76.1z"/>
		</g>
	</g>
</g>
</svg>
