<?xml version="1.0" encoding="utf-8"?>
<!-- Generator: Adobe Illustrator 26.3.1, SVG Export Plug-In . SVG Version: 6.00 Build 0)  -->
<svg version="1.1" id="Camada_1" xmlns="http://www.w3.org/2000/svg" xmlns:xlink="http://www.w3.org/1999/xlink" x="0px" y="0px"
	 viewBox="0 0 480 231.7" style="enable-background:new 0 0 480 231.7;" xml:space="preserve">
<style type="text/css">
	.st0{fill:#689FC5;}
	.st1{fill:#383942;}
	.st2{fill:#42434E;}
	.st3{fill:#43424F;}
	.st4{fill:#43434A;}
	.st5{fill:#9D7C9A;}
	.st6{fill:#EF6B8C;}
	.st7{fill:#31313B;}
	.st8{fill:#F5F5F6;}
	.st9{fill:#F7F8F8;}
	.st10{fill:#F3F4F4;}
	.st11{fill:#F6F6F7;}
	.st12{fill:#42ACA5;}
	.st13{fill:#393944;}
	.st14{fill:#42434B;}
	.st15{fill:#3A3746;}
	.st16{fill:#55A49F;}
	.st17{fill:#2A7A76;}
	.st18{fill:#454051;}
	.st19{fill:#577781;}
	.st20{fill:#483F51;}
	.st21{fill:#383A41;}
	.st22{fill:#3E4453;}
	.st23{fill:#3E4450;}
	.st24{fill:#5C5956;}
	.st25{fill:#46423E;}
	.st26{fill:#7D2A26;}
	.st27{fill:#473F55;}
	.st28{fill:#4A3F4E;}
	.st29{fill:#484239;}
	.st30{fill:#393A43;}
	.st31{fill:#7C9B69;}
	.st32{fill:#AECC99;}
	.st33{fill:#434447;}
	.st34{fill:#1E5355;}
	.st35{fill:#594215;}
	.st36{fill:#3E4648;}
	.st37{fill:#3A4653;}
	.st38{fill:#43434F;}
	.st39{fill:#4AA59E;}
	.st40{fill:#46A9A3;}
	.st41{fill:#62979A;}
	.st42{fill:#43AD97;}
	.st43{fill:#4BA7AA;}
	.st44{fill:#E95140;}
	.st45{fill:#F64A41;}
	.st46{fill:#F04F3B;}
	.st47{fill:#EB4E40;}
	.st48{fill:#F0C473;}
	.st49{fill:#B56560;}
	.st50{fill:#EF5036;}
	.st51{fill:#ED4C4F;}
	.st52{fill:#F74C38;}
	.st53{fill:#E84E3F;}
	.st54{fill:#E5C76F;}
	.st55{fill:#93887C;}
	.st56{fill:#26525E;}
	.st57{fill:#F8CA69;}
	.st58{fill:#FEC65A;}
	.st59{fill:#F7CA72;}
	.st60{fill:#FBC864;}
	.st61{fill:#E0C89B;}
	.st62{fill:#FCFCFC;}
	.st63{fill:#36373E;}
	.st64{fill:#3A3A42;}
	.st65{fill:#393940;}
	.st66{fill:#47404D;}
	.st67{fill:#3D454E;}
	.st68{fill:#4D4236;}
	.st69{fill:#696973;}
	.st70{fill:#E3533E;}
	.st71{fill:#EC4B49;}
	.st72{fill:#3E454D;}
	.st73{fill:#686872;}
	.st74{fill:#5B5B65;}
	.st75{fill:#60616B;}
	.st76{fill:#666670;}
	.st77{fill:#464058;}
	.st78{fill:#484243;}
	.st79{fill:#4A4047;}
	.st80{fill:#5A5A64;}
	.st81{fill:#F9C774;}
	.st82{fill:#E84F3C;}
	.st83{fill:#F8493E;}
	.st84{fill:#E85533;}
	.st85{fill:#EC4F44;}
	.st86{fill:#E44D44;}
	.st87{fill:#FAC96C;}
	.st88{fill:#FCFCF9;}
	.st89{fill:#F5CB64;}
</style>
<g>
	<path class="st0" d="M65.4,216c-13.5,0-27-0.1-40.5,0.1c-3.1,0-4-0.8-3.8-3.9c0.3-4.3,0.3-8.7,0-13c-0.3-3.5,0.7-4.4,4.3-4.4
		c24.8,0.2,49.6,0,74.4,0.2c4.7,0,6.7-0.8,6-5.9c-0.5-3.6-0.3-7.3,0-11c0.3-3.5-0.9-4.5-4.4-4.5c-19,0.2-38,0.1-57,0.1
		c-12.1,0-20.9-6.2-22.6-16.9c-1.6-9.8-1.6-20,0-29.8c1.7-10.2,10.1-16.6,21.3-16.7c26.8-0.2,53.6,0,80.4-0.1c2.7,0,3.5,0.9,3.4,3.4
		c-0.2,4.5-0.3,9,0,13.5c0.3,3.6-1.1,4.4-4.5,4.4c-25-0.1-50,0.1-74.9-0.2c-4.4,0-5.9,1.1-5.4,5.5c0.4,3.8,0.3,7.7,0,11.5
		c-0.3,3.5,0.9,4.5,4.4,4.5c18.7-0.2,37.3-0.1,56-0.1c4.7,0,9.3,0.3,13.5,2.7c7.2,4.3,10.6,10.8,10.9,19c0.2,6.5,0.2,13,0,19.5
		c-0.4,13.4-9.1,22-22.5,22.1C91.3,216.1,78.3,216,65.4,216z"/>
	<path class="st1" d="M439,223.8c-28.9,0.1-57.8,0.1-86.6,0.2c-14.8,0-29.5-0.1-44.3-0.2c-0.5-0.5-1-1.1-1-1.7
		c0.3-8.8,1.4-17.6,3.7-26.1c1.1-4.2,5-6.5,9.4-7.2c2.1-0.4,4.3-0.4,6.5-0.4c31.3,0,62.5,0,93.8,0c2.2,0,4.3-0.1,6.5,0.4
		c4.6,1.2,8.4,3.5,9.6,8.4c1.9,8.1,2.9,16.4,3.2,24.7C439.7,222.7,439.4,223.3,439,223.8z"/>
	<path class="st2" d="M439,223.8c-1-7.3-2.1-14.7-3-22c-1-8.4-4.8-11.8-13.5-11.8c-32.8,0-65.5,0-98.3,0c-9,0-12.4,3.3-13.3,12.3
		c-0.7,7.2-1.9,14.4-2.9,21.6c-2.7,0.1-5.3,0.2-8,0.1c-8.9-0.1-15.7-6.3-15.8-15.3c-0.2-29-0.1-57.9,0-86.9c0-5.5,2.9-9.8,7.8-12.4
		c1.5,0.8,3-0.6,4.6,0c2.6,1.1,3.7,2.4,0.6,4.3c-5.6,2.3-5.7,3.2-0.8,8c1.1,1.3,2,0.2,2.9-0.4c1.4-1,2.9-1.5,4.5-0.6
		c1.1,1.3-0.1,1.9-0.8,2.7c-0.8,0.7-1.6,1.3-2.3,2.2c-0.4,0.5-0.7,1.1-0.9,1.6c-0.4,1.1-0.5,2.2-0.4,3.3c0,3.8,0.2,7.7-0.1,11.5
		c-0.1,0.5-0.2,1-0.3,1.5c-0.2,0.7-0.6,1.3-0.9,1.9c-1.1,1.9-0.8,3.8-0.3,5.7c0.1,0.7,0,1.4-0.3,2c-0.3,0.3-0.7,0.6-1.1,0.8
		c-1.2,0.4-2.6,0.4-3.7,1c-0.7,0.4-1.5,0.8-2.2,1.3c-1.8,1.6-0.8,3.2,0.1,4.7c0.2,0.6,0.3,1.3,0.2,1.9c-0.7,1.6,0.5,3.3-0.3,4.9
		c-1.3,4.9-4.6,9.6-2.1,15c1.6-1.1,2-2.9,2.9-4.4c1.2-1.9,2.2-1.4,3.4,0c0.7,0.9,1.6,1.5,2.7,1.9c1.6,0.7,3,1.9,4.7,2.6
		c3.4,1.5,7.1,1.7,10.8,1.7c40.6,0,81.1,0,121.7,0c4.1,0,7.9-0.5,11.6-2.3c2-0.4,3-1.5,2.8-3.6c0.1-1.3,0.2-2.6,1.1-3.7
		c1.5-0.8,2.4,0,3.3,1.1c1.6,2.1,4.3,3.4,4.6,6.6c0.1,1.5,2.2,1.1,3.2,1.9c3.2,5.1,1.6,10.6,1.2,15.8c-0.3,3.3-0.8,6.6,0.3,9.8
		c-0.8,7.9-6.5,13.5-14.3,13.9C444.9,224.1,441.9,223.9,439,223.8z"/>
	<path class="st3" d="M462.2,210.1c-3.8-2.8-2.1-6.2-1.2-9.7c1.3-5.1,2.7-10.5-1-15.4c-0.5-0.5-0.9-1.1-1-1.8
		c-0.7-1.6,0.8-4.2-2.1-4.9c-1.6-0.6-3.5,0.1-4.8-1.3c0-1.3-0.7-2-1.9-2c-2-2.1-1.4-4.5-1-6.9c0.3-1.1,2.4-2.1,0.3-3.5
		c-0.3-0.7-0.5-1.4-0.6-2.2c-0.3-5.5,0.2-11-0.3-16.5c-0.2-0.5-0.2-1.1-0.3-1.6c0-0.5,0-1.1,0.1-1.6c0.3-5.4,1.5-10.9-0.7-16.2
		c-0.7-0.3-1.4-0.7-2-1.2c-1-0.9-2.2-1.7-3.3-2.4c-2.3-0.8-4.6-0.5-6.9-0.5c-38.2,0-76.5,0-114.7,0c-1.6,0.1-3.2,0.2-4.7,0
		c-3.9-0.6-8.2,1.2-11.9-1.4c-2.5-0.5-4.1,1-5.7,2.4c-2.2,1.9-2.4,0.4-2.3-1.4c0.8-2.9,3.3-5.7,1-9c2.2-1.8,0.5-2.4-1-3
		c1.2-2.9,3.7-2,5.9-2c45.9,0,91.8,0,137.8,0c2.8,0,5.6,0.5,8.3-0.8c9.6,1.2,14.8,7.4,14.8,17.8c0.1,20.8,0.1,41.5,0,62.3
		C462.7,194.9,463.6,202.5,462.2,210.1z"/>
	<path class="st4" d="M448,107.2c0.5,1.2,0.4,1.8-1.1,1.8c-48.5,0-97,0-145.5-0.1c-2,0-3.7,0.3-5.4,1.1c-1.3-0.1-3,1.4-3.9-0.7
		c2.6-1.4,5.3-2.3,8.4-2.3c48.3,0.1,96.7,0,145,0.1C446.3,107,447.2,107.2,448,107.2z"/>
	<path class="st0" d="M218.9,110.3c-25.6-0.1-51.3,0.1-76.9-0.1c-4.2,0-4.8,1.5-4.8,5.1c0.2,16,0.1,32,0.1,47.9
		c0,16.3,0.1,32.6-0.1,48.9c0,3,0.7,4.1,3.8,3.9c4.6-0.3,9.3-0.3,14,0c3,0.2,3.5-1,3.5-3.7c-0.1-11.3,0.1-22.6-0.2-33.9
		c-0.1-3.7,0.9-4.7,4.7-4.7c19,0.2,37.9,0.2,56.9,0.1c14.3-0.1,23-8.8,23.1-23c0-5.5,0-11,0-16.5C243,118.8,234.5,110.3,218.9,110.3
		z M222,148.9c0.2,3.3-1.1,3.8-4,3.8c-9.3-0.2-18.6-0.1-27.9-0.1c-9.1,0-18.3-0.1-27.4,0.1c-3.1,0.1-4.5-0.6-4.3-4.1
		c0.3-4.3,0.3-8.7,0-13c-0.2-3.1,0.6-4.4,4.1-4.3c18.5,0.2,36.9,0.1,55.4,0c3.1,0,4.5,0.6,4.2,4.1
		C221.7,139.9,221.7,144.4,222,148.9z"/>
	<path class="st5" d="M457.6,49.5c5.2-2,6.7-5.7,6.5-10.5c-0.2-4.7,0-9.3-0.1-14c-0.2-9.8-6.9-16.8-16.6-16.9c-21-0.2-42,0-62.9-0.1
		c-3,0-3.5,1.1-3.5,3.7c0.1,25.3,0.1,50.6,0,75.9c0,2.4,0.4,3.5,3.2,3.5c21.1-0.1,42.3,0,63.4-0.1c9.4-0.1,16.1-7.2,16.3-16.6
		c0.1-4.5-0.2-9,0.1-13.5C464.4,55.8,463.1,51.8,457.6,49.5z M398.7,25.4c2.3-2,7.6-0.6,11.6-0.7c11,0,22,0.1,33-0.1
		c3.6-0.1,4.4,1.1,4.4,4.5c-0.1,12,0.1,12-12.2,12c-4.5,0-9,0-13.5,0c-6.7,0-13.3-0.1-20,0.1c-3,0.1-4.7-0.4-4.2-3.9
		C398.3,33.2,396,27.8,398.7,25.4z M435.5,74.4c-4.3,0-8.7,0-13,0c-7,0-14-0.1-21,0.1c-2.6,0.1-3.7-0.4-3.8-3.5
		c-0.2-13.1-0.4-13.1,12.6-13.1c11.2,0,22.3,0.1,33.5-0.1c3.1,0,3.9,0.8,3.9,3.9C447.7,74.4,447.9,74.4,435.5,74.4z"/>
	<path class="st6" d="M264.2,8.1c-20.7-0.1-41.3,0-62-0.1c-3.1,0-3.9,0.8-3.9,3.9c0.2,12.5,0.1,25,0.1,37.5s0.1,25-0.1,37.5
		c0,3.1,0.5,4.3,4,4.3c20.5-0.2,41,0,61.5-0.1c10.5,0,17.3-6.6,17.5-17c0.2-16.3,0.2-32.7,0-49C281.1,14.8,274.3,8.2,264.2,8.1z
		 M265,71c0,2.6-0.7,3.4-3.3,3.4c-14.5-0.1-28.9-0.1-43.4,0c-2.7,0-3.2-1-3.2-3.4c0.1-14.3,0.1-28.6,0-42.9c0-3.1,1.1-3.5,3.7-3.4
		c7.1,0.2,14.3,0.1,21.5,0.1c7,0,14,0.1,21,0c2.5,0,3.9,0.3,3.8,3.4C264.8,42.4,264.9,56.7,265,71z"/>
	<path class="st6" d="M169.8,57.9c3,0,4.1,0.7,4,3.9c-0.3,5.7-0.1,11.3-0.1,17c0,4-1.3,9.4,0.7,11.5c2.4,2.6,7.9,0.4,12,0.9
		c3.1,0.3,3.9-0.6,3.9-3.8c-0.2-10.5-0.1-21-0.1-31.5c0-9.8,0-19.7,0-29.5c-0.1-11.7-6.7-18.3-18.4-18.3c-15.2,0-30.3,0-45.5,0
		c-12.5,0-19.1,6.6-19.2,19c0,17.2,0,34.3,0,51.5c0,4-1.3,9.3,0.7,11.6c2.4,2.7,7.8,0.4,11.9,0.9c3.8,0.5,4.3-1.2,4.2-4.5
		c-0.2-8.2,0-16.3-0.1-24.5c-0.1-3,0.4-4.3,4-4.3C141.8,58.1,155.8,58,169.8,57.9z M128.3,41.3c-3.3,0.1-4.6-0.5-4.5-4.2
		c0.2-12.4,0-12.4,12.3-12.4c4.2,0,8.3,0,12.5,0c7,0,14,0.1,21-0.1c2.8-0.1,4.1,0.4,4.2,3.7c0.2,12.8,0.3,12.8-12.5,12.8
		C150.3,41.2,139.3,41.1,128.3,41.3z"/>
	<path class="st6" d="M355,8.1c-15.8-0.1-31.6-0.1-47.5,0c-11,0-17.6,6.7-17.8,17.7c-0.1,7.8,0,15.7,0,23.5c0,7.7,0,15.3,0,23
		c0,0.3,0,0.7,0,1c0.3,11.1,6.8,17.7,17.8,17.8c15.8,0.1,31.6,0.1,47.5,0c10.2-0.1,17.3-6.3,17.6-16.5c0.4-16.6,0.4-33.3,0-49.9
		C372.3,14.4,365.2,8.2,355,8.1z M352.7,74.4c-14.3-0.1-28.6-0.1-42.9,0c-2.7,0-3.8-0.6-3.7-3.6c0.2-14.1,0.2-28.3,0-42.4
		c0-3.2,1.1-3.9,4-3.8c7,0.2,14,0.1,20.9,0.1c7.3,0,14.6,0.1,21.9-0.1c2.4-0.1,3.1,0.7,3.1,3.1c-0.1,14.5-0.1,28.9,0,43.4
		C356.1,73.8,355.3,74.5,352.7,74.4z"/>
	<path class="st6" d="M94.5,74.3c-19.2,0.2-38.3,0-57.5,0.2c-3.4,0-4.5-0.9-4.5-4.4c0.2-16.5,0.2-33,0-49.5c0-4.1,1.9-9.7-0.8-11.8
		c-2.6-2-8-0.5-12.1-0.7C16.8,7.8,16,8.7,16,11.5c0.1,20.7,0,41.3,0.1,62c0,10.6,6.9,17.4,17.5,17.5c10,0.1,20,0,30,0
		c7.8,0,15.7,0,23.5,0c12,0,11.8,0,12.1-12.1C99.2,75.2,98.2,74.2,94.5,74.3z"/>
	<path class="st7" d="M372.6,195.1c3.3-0.1,4.6,1.1,4.4,3.6c-0.2,2.3-0.7,4.4-3.7,4.3c-2.5-0.1-4.2-1.4-4.2-4
		C369.1,196.4,370.9,195.2,372.6,195.1z"/>
	<path class="st8" d="M331.2,211c0,3-1.6,4.3-4,4.3c-2.5,0-4.1-1.6-4.1-4.1s1.7-4.1,4.1-4.1C329.6,207.3,331.1,208.8,331.2,211z"/>
	<path class="st9" d="M347.2,205.4c-0.3,2.5-1.6,3.9-4.2,3.8c-2.5-0.1-4-1.6-3.9-4.1s1.7-4,4.2-3.9
		C345.7,201.2,347.1,202.8,347.2,205.4z"/>
	<path class="st10" d="M419.8,207.2c2.4,0.5,4.1,1.9,3.9,4.4c-0.1,2.5-1.8,4-4.3,3.9s-3.9-1.8-3.8-4.2
		C415.7,208.6,417.4,207.4,419.8,207.2z"/>
	<path class="st11" d="M403.5,201c2.4,0.3,4.1,1.5,4.2,4c0.1,2.4-1.3,4-3.9,4.2c-2.6,0.1-4.1-1.3-4.2-3.8
		C399.6,202.9,401.1,201.4,403.5,201z"/>
	<path class="st12" d="M298.1,143c0-4.6,0-9.3,0.1-13.9c1.9-3.7,5.3-3.4,8.7-3.4c41.4,0,82.7,0,124.1,0c5.3,0,10.6-0.5,15.9,0.5
		c0.6,0.2,1.2,0.5,1.6,1c0.8,5.3,1.1,10.7-0.3,16c-7,2.4-14.1,1.1-21.2,0.8c-1.8-0.7-2.7-2.2-3.4-3.9c-0.1-0.6,0-1.1,0.3-1.6
		c0.4-0.8,0.3-1.6-0.6-2.1c-2.1-1.1-4.2-2-6.6-2c-29.6-0.1-59.2,0.1-88.8-0.1c-2.6,0.3-5.1,0.6-5.3,4c-0.1,0.4-0.3,0.8-0.7,1.1
		c-0.6,0.4-1.2,0.5-1.9,0.5c-0.3,0-0.6-0.1-0.9,0s-0.1,0.2,0.3,0.3c0.9,0.3,1.1,1,1.2,1.9c-0.2,0.9-0.7,1.4-1.5,1.8
		c-5.8,0.9-11.6,0.3-17.4,0.4C300.3,144.4,299,144,298.1,143z"/>
	<path class="st13" d="M447.9,183c-6.2,3.5-13.1,3-19.9,3c-39.3,0-78.6,0-117.9,0c-3.7,0-7.3-0.4-10.2-3c-0.1-1.6,1.1-1.9,2.3-2.1
		c1.6-0.4,3.3-0.3,5-0.3c44.5,0,88.9,0,133.4,0.1C443.2,180.7,446.5,179.3,447.9,183z"/>
	<path class="st14" d="M447.9,183c-1.5-1.6-3.4-1-5.2-1c-45.9,0-91.7,0-137.6,0c-1.7,0-3.7-0.7-5.2,1c-1.3-0.7-2.7-1.3-4-2
		c-0.6-0.6-0.9-1.3-1-2.1c0-0.5,0.1-1-0.1-1.5c-0.2,0.6-0.4,1.2-1,1.6c-0.7,0.1-1-2.4-2.1,0c-1,2.1-1.1,4.9-3.8,6
		c-2-3.7-1.1-7.2,0.7-10.6c0.8-1.6,1.6-3.2,2.3-4.8c2.3-2.6,1.6-4.7-1.1-6.5c0-0.7,0-1.3,0-2c-1.3-2-1.3-4,0-6c0.7-0.3,1.3-0.7,2-1
		c1.3,1.8,2.3,3.8,4.4,5c1.5,3.2-0.8,6.3,0.1,8.9c0.1-1.1-0.1-2.8,0.1-4.5c0.2-0.6,0.6-0.8,1.2-0.7c0.5,0.3,0.8,0.7,1,1.2
		c0.4,1,0.5,2.1,0.5,3.2c0,1.8,0,3.7,0,5.5c0,1.2,0,2.5,0,3.7c-0.1,1.8,0.4,3.2,2.6,3.1c4.7,0.2,9.3-0.1,14,0.1c1.5,0,2.9,0,4.4,0
		c3.4,0,6.8,0,10.2,0c37.1,0.1,74.3,0,111.4-0.1c1.8,0.1,3.6,0.5,5.3-0.6c0.4-0.2,0.9-0.4,1.4-0.4s0.9,0.2,1.3,0.5
		C449.8,180.5,450.7,182.7,447.9,183z"/>
	<path class="st15" d="M316,121c1.3,0,2.7,0,4,0c1.9,1.5,4.1,1,6.3,1c26.9,0,53.9,0,80.8,0.1c2,0,5.5-1.3,5,3.1
		c-1.8,1.2-3.9,0.8-5.8,0.8c-33.4,0-66.7,0-100.1,0c-2.1,0-4.4,0.7-6.2-1.1c0.7-0.6,1.3-1.3,2-1.9c2.6-1.3,5.5-0.9,8.3-1
		C312.2,121.9,314.3,122.5,316,121z"/>
	<path class="st16" d="M447.9,127.1c-47.6,0-95.2,0-142.9-0.1c-2.6,0-4.8,0.9-6.9,2.1c0.3-1,0.6-2,0.9-3c1.7-0.9,3.6-0.5,5.4-0.5
		c31.2,0,62.5,0,93.7,0c13.4,0,26.8-1.6,40.3-1c3,0.1,6,0.1,8.8,1C448.1,125.8,448.3,126.3,447.9,127.1z"/>
	<path class="st17" d="M447.8,126.1c-49.6,0-99.2,0-148.8-0.1c0.3-0.4,0.7-0.7,1-1.1c37.3,0,74.6,0,111.9,0c1.6-1.4,3.5-1.3,5.5-1.3
		c7.3,0,14.5,0,21.8,0c2.3,0,4.6,0,6.7,1.3c0.7,0.1,1.3,0.1,2,0.2c0.3,0.2,0.3,0.5,0.2,0.7C448,126,447.9,126.1,447.8,126.1z"/>
	<path class="st13" d="M297,113c3.7,3.2,3.5,5-1,9c-2.5-1.1-5-2.4-4.5-5.6C291.9,113.5,294.2,112.7,297,113z"/>
	<path class="st18" d="M292,169c-0.1,1.4,0,2.8-1,4.1c-2.6,3.5-3.5,7.5-3,11.9c-2.1-0.2-2-1.8-2-3.3c-0.2-5.3,0.2-10.4,4-14.7
		C292.1,166.2,292.8,166.9,292,169z"/>
	<path class="st13" d="M455.9,210.8c-0.1,2.5-1.2,4.3-3.8,4.5c-2.6,0.2-4-1-4.2-3.7c-0.1-2.8,1.6-4.1,3.9-4.2
		C453.8,207.3,455.7,208.4,455.9,210.8z"/>
	<path class="st13" d="M293.9,214.9c-0.8-0.1-2.7,0-2.5-2.8c0.2-2.9,1.3-5,4.3-4.8c2.2,0.1,3.3,1.9,3.3,4.2
		C299.1,214.3,297.4,215.1,293.9,214.9z"/>
	<path class="st19" d="M298.1,143c7.3,0,14.6,0,21.9,0c1.5-0.9,0.6-3,2.1-3.9l0,0c0.5-0.4,1-0.3,1.4,0.2c0.8,1.3,0.8,2.6,0.4,4
		c-0.2,0.6-0.6,1-1,1.4c-0.5,0.3-1.1,0.5-1.6,0.6c-7.3,0.2-14.6,0.6-22-0.2c-0.6-0.2-1-0.6-1.4-1.1C297.9,143.6,298,143.3,298.1,143
		z"/>
	<path class="st20" d="M452,177c2,0,4,0,6,0c1.8,1.6,0.1,4.4,2,6c0,0.7,0,1.3,0,2c-1.3-0.1-3.6,0.2-3.5-0.9
		C456.9,180.2,453.3,179.4,452,177z"/>
	<path class="st21" d="M316,121c-0.3,2.4-2.2,2-3.8,2c-3.4,0-6.8,0-10.2,0c0.7-0.7,1.3-1.3,2-2C308,121,312,121,316,121z"/>
	<path class="st22" d="M296,159c-4.2,0.7-4.2-2.1-4-5c1.1-1.5,2.6-0.9,4-1C297.5,155,297.8,157,296,159z"/>
	<path class="st23" d="M292,169c0-1.3-0.7-2-2-2c1.2-1.3-4.1-2.7,0-4c1.5,0.2,3.6-0.6,3.9,1.8C294.1,166.4,294.8,168.6,292,169z"/>
	<path class="st24" d="M297.9,163c-0.3,0-0.6,0-0.9,0c-0.8-3.3-0.8-6.6,0-10c0-0.7,0-1.4,0-2c-0.7-2-0.7-4,0-6
		c0.3-0.4,0.5-0.7,0.8-1.1l0.3,0.3c0.8,0.8,1.1,1.9,1.2,3c0.1,1.4,0.1,2.8,0.1,4.2c0.1,3.1,0.1,6.2-0.2,9.4
		C299.1,161.7,298.7,162.5,297.9,163z"/>
	<path class="st25" d="M297,153c0,3.3,0,6.6,0,10c0,2.3,0,4.5,0,6.8c-0.3,0-0.7,0-1,0c0-3.6,0-7.2,0-10.8c0-2,0-4,0-6
		C296.3,153,296.7,153,297,153z"/>
	<path class="st26" d="M449.9,178.9c-0.4,0-0.7,0-1.1,0c-2.1-5-1.5-10-0.5-15.1c0.4-0.6,0.9-0.8,1.5-0.8c0.1,0.7,0.1,1.3,0.2,2
		c0.5,0.7,0.5,1.3,0,2c0,2.7,0,5.3,0,8C450,176.3,450,177.6,449.9,178.9z"/>
	<path class="st27" d="M294,179c0.2-1.8-0.5-3.8,1.1-6.2c1.3,3.2,0.7,5.7,0.9,8.2C294.7,181,294.1,180.3,294,179z"/>
	<path class="st28" d="M295.3,132.4c-1.8-1.8-1.2-3.6-1.1-6.3C296.8,128.5,295.7,130.5,295.3,132.4z"/>
	<path class="st23" d="M290,155c0,2,0,4,0,6C286.9,159,286.9,157,290,155z"/>
	<path class="st29" d="M297,145c0,2,0,4,0,6C295.5,149,295.5,147,297,145z"/>
	<path class="st21" d="M417,124.9c-1.7,0-3.3,0-5,0c-0.9-3.2-3.6-1.8-5.4-1.8c-27.1-0.1-54.1,0-81.2-0.1c-1.9,0-4.5,1.3-5.4-1.9
		c39.5,0,79.1,0,118.6,0.1c1.9,0,4.5-1.3,5.4,1.9c-2,1.7-4.5,0.8-6.7,1C430.5,124.5,423.7,123,417,124.9z"/>
	<path class="st15" d="M417,124.9c0.6-2.7,2.8-1.8,4.4-1.8c7.5-0.1,15.1,0,22.6,0c1.2,0,1.9,0.6,2,1.9
		C436.3,124.9,426.6,124.9,417,124.9z"/>
	<path class="st30" d="M451.1,113c2.8,0.1,5.1,0.3,5.2,2.9c0.1,2.9-1.8,4.8-4.6,4.9c-2.3,0.1-3.5-1.6-3.7-3.9
		C447.8,114.2,449.1,112.9,451.1,113z"/>
	<path class="st31" d="M426,142.9c7.3,0,14.6,0,21.9,0c0.2-0.1,0.4-0.2,0.6-0.3c0.2,0.1,0.4,0.2,0.6,0.4c-0.1,0.4-0.2,0.8-0.3,1.1
		c-1.9,1.8-4.3,1.2-6.6,1.3c-5.4,0.1-10.9-0.1-16.3,0.2c-0.6,0.1-1.2,0-1.7-0.2c-0.8-0.6-0.9-1.4-0.5-2.3
		C424.4,142.4,425.2,142.4,426,142.9z"/>
	<path class="st32" d="M425,145c4.4-2.1,9-0.6,13.5-0.9c3.4-0.2,6.9,0,10.4,0c0.1,0.3,0.2,0.6,0.3,1c-0.2,0.2-0.4,0.4-0.7,0.6
		c-0.5,0.3-1.1,0.5-1.7,0.6c-6.2,0.4-12.4,0.3-18.6,0.1C427,146.3,425.8,146,425,145z"/>
	<path class="st33" d="M455.6,152.5c-1.2,0-1.5-0.6-1.5-1.3c0-3.1,3.4-2,4.7-3.6c0.4-0.4,1.1,0.5,1.1,1.2
		C459.9,152.1,455.8,150.1,455.6,152.5z"/>
	<path class="st34" d="M447.8,126.1c0-0.3,0-0.7,0.1-1c0.9,0.1,1.9,0.4,1.9,1.3c-0.1,5.5,1.1,11.1-0.7,16.6l-0.2,0.1
		c-1.1-5.3,0.5-10.7-0.9-16l0,0C447.9,126.7,447.9,126.4,447.8,126.1z"/>
	<path class="st35" d="M449.9,163c-0.2,0-0.5,0-0.7,0c-0.2-0.2-0.5-0.4-0.7-0.6c-1.3-5.8-1.7-11.6,0.4-17.4h0.3
		C450.9,151,449.6,157,449.9,163z"/>
	<path class="st36" d="M460,183c-3.6-1-1.3-4-2-6C461.6,178,459.3,181,460,183z"/>
	<path class="st37" d="M450,167c0-0.7,0-1.3,0-2c1.1,0.2,3.2-0.6,3.2,1C453.2,167.7,451.2,166.7,450,167z"/>
	<path class="st38" d="M424.3,143c0,0.7,0,1.4-0.1,2.2c1.9,3.7,1.4,7.6,0.4,11.4c-0.5,0.8-1.3,1-2.2,0.9c-1.4-0.7-1.5-2-1.7-3.2
		c-0.6-3.1-2.8-0.1-4-1c-1.7-1-2.1-2.9-3.1-4.4c-2.6-3.8-7.5-4.6-10.8-2c-3.6,2.8-4.5,9.1-1.9,11.9c3.4,3.7,9.1,3.9,12.3,0.4
		c1.3-1.5,1.8-3.6,3.7-4.6c2.9,0.9,4.4,4,7.6,4.5c0.6,0.9,0.7,1.9,0.8,2.9c0,1.8,0.1,3.6-0.2,5.4c-0.9,2.8-2.9,4.7-5.4,6.1
		c-0.5,0.2-1,0.4-1.5,0.5c-1.6,0.3-3.2,0.3-4.8,0.4c-0.9,0-1.8,0-2.6,0.1c-26.2,0-52.3,0-78.4,0c-1.2,0-2.4-0.1-3.5-0.4
		c-1.8-0.7-3.5-1.6-5-2.8c-0.5-0.7-0.7-1.5-0.9-2.3c-0.1-2.5-0.3-4.9,1.3-7.1c0.5-0.6,1.2-1.1,1.9-1.5c2.2-0.8,4.5-0.6,6.8-0.9
		c1,0,1.9,0.6,2.8,1c4.4,2.2,7.8,1.3,10.7-3c2-2.9,1.5-6.8-1.3-9.5c-3.2-3-7.4-3.4-10.9-0.9c-1.2,0.9-1.9,2.4-3.4,2.9
		c-1.2,0.3-2.1,1.2-3.2,1.7c-1.3,0.4-2.5,0.4-3.6-0.4c-1.5-1.7-1.1-3.9-1.5-5.8c0-0.5,0.1-1,0.4-1.5c0.1-0.4,0.1-0.7,0.2-1.1
		c0.7-0.6,0.4-1.7,0.9-2.4c1.1-1.4,0.4-3.1,0.8-4.6c0.5-1.1,1.3-1.7,2.5-1.9c1.5-0.2,2.9-0.6,4.4-0.6c27.7,0.1,55.4,0,83.1,0.1
		c3.9,0,8.1,0.3,9.2,5.4c0,0.3,0.1,0.7,0.1,1C424.6,141,424.9,142,424.3,143z"/>
	<path class="st39" d="M424,139c-2.1-3.8-5.6-4.9-9.7-4.9c-27.1,0-54.3,0-81.4,0c-2.3,0-4.6,0.6-6.9,0.9c-0.5-0.7-0.6-1.3,0-2
		c30.4,0,60.8,0,91.2,0c2.9,0,5.3,1.5,7.9,2.5c1,0.4,2.7,1.4,2.1,2.9C426.8,139.5,425.1,138.9,424,139z"/>
	<path class="st40" d="M300.5,131.1c6.1,0,12,0,17.9,0c0.6,0,1.3,0.6,0.8,1.4c-0.6,0.8-1.8,2-2.1,1.8c-5.2-3-11.1-0.1-16.3-1.9
		C300.8,132.5,300.8,132.2,300.5,131.1z"/>
	<path class="st40" d="M326,133c0,0.7,0,1.3,0,2c-0.4,0.6-0.8,1.2-1.2,1.8c0.1,0.6-0.1,1-0.5,1.4s-0.8,0.7-1.4,0.7
		c-0.3,0-0.6,0-0.9,0.1C318.8,134,324.2,134.7,326,133z"/>
	<path class="st41" d="M447.9,127.1c2.2,5.2,0.6,10.7,0.9,16c-0.3,0-0.6,0-0.9-0.1C447.9,137.7,447.9,132.4,447.9,127.1z"/>
	<path class="st42" d="M322,139.1c-0.3,1.5,0.8,3.7-2.1,3.9c0-0.6,0-1.3,0-1.9c-0.6-0.7-0.6-1.3,0-2C320.7,139,321.4,139,322,139.1z
		"/>
	<path class="st43" d="M320,139c0,0.7,0,1.3,0,2c-1.2-0.1-2.5-0.3-3.3-1.8C317.9,139.1,319,139.1,320,139z"/>
	<path class="st39" d="M424.3,143c-0.1-1-0.1-2-0.2-2.9c1.2,0.6,1.8,1.5,1.9,2.9C425.4,142.9,424.9,143,424.3,143z"/>
	<path class="st44" d="M418.9,172.9c1.7-1.6,3.4-3.3,5.2-4.9c1.1-1.8,0.9-4.1,2.1-5.9c7.1-0.3,14.3-1.6,21.2,0.9
		c0.6,0.5,1,1.2,1.1,2c-0.3,2.2-1.5,4.5,0,6.7c0,1.9,0,3.8,0,5.8c-0.6,2.2-3,2.3-4.4,3.5c-38,0-76,0-114,0c-0.9-2.5,1-2.8,2.6-3.2
		c2.1-0.5,4.3-0.3,6.5-0.3c22.1,0,44.3,0,66.4,0c3.6,0,7-0.3,8.4-4.3C415.6,173,417.2,173,418.9,172.9c2.8,1.5-0.5,2.8-0.1,4.3
		c1.7,1.7,2.7,0.7,3.6-0.9c0.5-1.5,0.7-3.2,2.7-3.6C423,173,421,175,418.9,172.9z"/>
	<path class="st45" d="M414,173.1c0.9,4.8-1.2,6.1-6,6c-24.4-0.2-48.7-0.1-73.1-0.1c-1.7,0-4.2-1.1-4.9,1.9c-3.3,0-6.7,0-10,0
		c-0.6-0.7-0.5-1.4-0.1-2.1c2.5-1.7,5.9-0.6,8.4-2.5c1.5-0.5,2.8-1.3,4.2-2.1c0.6-0.1,1.1-0.2,1.7-0.2c23.9-0.1,47.7,0,71.5,0
		c2.1,0,4.3,0.5,6.3-0.9C412.6,173.1,413.3,173.1,414,173.1z"/>
	<path class="st46" d="M298.1,167c0-1.1,0.1-2.2,0.1-3.2c0.4-0.3,0.8-0.4,1.3-0.4c2.6,0.1,4.7,1.1,6.1,3.3c1.8-1.1,1-3.6,2.9-4.4
		c4.1-1,8.2-0.7,12.3-0.2c0.5,0.2,1,0.5,1.4,0.9c0.8,1.2,0.6,2.6,0.7,4c-0.1,2.7,0.6,5.7-1.9,7.8c-0.7,0.8-1.6,1.5-2.3,2.3
		c-0.4,0.5-0.8,0.9-1.1,1.4c-0.5,0.8-0.9,1.8-1.7,2.4c-5.3,0-10.7-0.1-16-0.1c-1-1.2-1-2.6-1-4c0.1-1.3-0.2-2.7,0.7-3.9
		c3.6-1.9,7.5-0.3,10.6-0.9C306.5,170.9,299.9,175,298.1,167z"/>
	<path class="st47" d="M298.1,167c4.3,7.4,12.4,2,18,6c-5.4,0-10.7,0-16.1,0c-0.6,0.6-1.3,0.6-1.9,0C298.1,171,298.1,169,298.1,167z
		"/>
	<path class="st48" d="M298.8,163.9c-0.2,0-0.4-0.1-0.6-0.1c-0.1-0.3-0.2-0.5-0.3-0.8c0.1-0.7,0.2-1.3,0.2-2
		c0.7-0.6,1.5-0.8,2.4-0.7c7,0.9,14.1-0.1,21.1,0.3c0.8,0.7,0.9,1.4,0.1,2.1c-4.6,0.1-9.2,0.2-13.7,0.2
		C305.1,165.5,301.8,163.3,298.8,163.9z"/>
	<path class="st49" d="M447.8,178.1c0-2.3,0.1-4.7,0.1-7c-1.3-1.6-0.7-3.3,0-5c0-0.8-0.1-1.5-0.1-2.3c-0.2-0.3-0.2-0.6,0-0.9
		c0.3-0.3,0.6-0.2,0.9,0l0.5,0.1c-0.1,5.3-0.2,10.6-0.4,15.9c-0.3,0.1-0.5,0.1-0.8,0.2c-0.3-0.2-0.5-0.4-0.4-0.6
		C447.7,178.2,447.7,178.1,447.8,178.1z"/>
	<path class="st50" d="M316,180.9c0-1.1-0.2-2.2,1-2.9c1.1,0,2.3-0.1,3,1c0,0.6,0,1.2,0,1.9C318.7,180.9,317.3,180.9,316,180.9z"/>
	<path class="st51" d="M447.8,178.1c0.1,0.3,0.2,0.7,0.2,1c-0.3,2.9-2.5,1.7-4.1,1.8C444.1,178.4,446.7,179.1,447.8,178.1z"/>
	<path class="st52" d="M298.1,173c0.6,0,1.3,0,1.9,0c0,1.3,0,2.7,0,4c-0.6,0.6-1.2,0.6-1.8,0C298.2,175.7,298.1,174.3,298.1,173z"/>
	<path class="st53" d="M298.2,177c0.6,0,1.2,0,1.8,0c0,1.3,0,2.5,0,3.8C297.9,180.3,298,178.6,298.2,177z"/>
	<path class="st54" d="M298.2,147c0-0.9,0-1.9-0.1-2.8c7.9,0,15.8,0,23.8-0.1c0.3,0.6,0.2,1.1-0.4,1.5c-6,1.7-12.1,0.3-18.1,0.8
		C301.6,146,300.1,148.3,298.2,147z"/>
	<path class="st55" d="M321.8,145.1c0-0.3,0.1-0.6,0.1-0.9c0.3-0.1,0.6-0.1,1-0.1c0.1,0.3,0.2,0.7,0.3,1c0.3,4.4,1.5,8.7,1.2,13.1
		c-0.1,1.9,0.3,4.1-2.1,5c-0.2-0.1-0.3-0.2-0.5-0.4c0.1-0.6,0.1-1.2,0.2-1.8c-2.3-3.7-1.1-7.7-1.3-11.6
		C320.6,147.9,320.7,146.3,321.8,145.1z"/>
	<path class="st56" d="M323,139c0.3-0.4,0.6-0.7,0.9-1.1c1,1,0.9,2,0.1,3.1c0,0.8-0.2,1.6-1,2C323,141.6,323,140.3,323,139z"/>
	<path class="st57" d="M300,161c-0.6,0-1.2,0-1.8,0c0-3.3,0-6.7,0-10c1-1.2,1.6-3.1,3.8-2.3c0.4,0.3,0.6,0.7,0.8,1.1
		c0.6,2.1,0.5,4.2,0,6.3c-0.7,1.3-1.3,2.7-1.4,4.2C301.2,161,300.8,161.5,300,161z"/>
	<path class="st58" d="M302,149c-1.3,0.7-2.5,1.4-3.8,2c0-1.3,0-2.6,0-4c1.6,0.1,2.1-2.2,3.8-1.9C303.1,146.4,303.2,147.7,302,149z"
		/>
	<path class="st59" d="M423.9,157c0.1-3.9,0.2-7.9,0.3-11.8c0.3,0,0.5-0.1,0.7-0.2c1,0,2,0.1,3,0.1c1.2,1.4-0.4,2.5-0.5,3.7
		c0,1.1,0.9,1.8,1,2.9c-1.6,3.1-0.7,6.2,0.1,9.2c-0.4,1.6-1.6,1.6-2.9,1.5c-0.5,0-1-0.1-1.4-0.4c-0.1-1-0.3-2.1-0.4-3.1
		C423.4,158.3,423.4,157.7,423.9,157z"/>
	<path class="st60" d="M428,161c-2.6-3.3-2.6-6.7,0-10c3.2-2,6.7-0.4,9.4-1c-3.4-0.6-7.6,1.1-11.4-1c0.7-1.3,1.3-2.6,2-3.9
		c6.6,0,13.3,0,19.9,0c1.1,5.4,0.7,10.7,0.2,16.1C441.3,162.4,434.6,162.7,428,161z"/>
	<path class="st61" d="M447.9,161c0-5.3,0-10.6,0-15.9c0.3-0.1,0.6-0.1,1-0.1c0,6-0.1,11.9-0.1,17.9c-0.3-0.1-0.5-0.3-0.8-0.4
		C447.5,162,447.4,161.5,447.9,161z"/>
	<path class="st62" d="M385.7,161.9c-6.2,0-12.4,0-18.6,0c-0.9-0.8-1.3-1.8-1.4-3c1-4.2,0-8.5,0.4-12.7c0.8-2,2.6-1.6,4.2-1.6
		c5,0,10.1-0.1,15.1,0c1.6,0.7,1.3,2.2,1.2,3.4c-0.4,4.2-0.1,8.3,0,12.5C386.5,161.1,386.2,161.5,385.7,161.9z"/>
	<path class="st63" d="M366.8,147.1c1,4,1.1,8,0.1,12c-0.5,1.2-0.7,2.6-2.5,2.5c-2.8-0.2-5.6,0.5-8.3-0.5c-0.9-0.1-1.7-0.2-2.1-1.1
		c-0.7-4.3-0.7-8.6,0-12.8c0.4-1,1.1-1.7,2.1-2.1c2.7-0.9,5.4-0.2,8.2-0.4C366.1,144.3,366.4,145.7,366.8,147.1z"/>
	<path class="st44" d="M412,173.1c-0.7,3-3.2,1.9-4.9,1.9c-25,0.1-50,0-75,0c-0.9-0.4-1.5-0.9-1-1.9C358,173.1,385,173.1,412,173.1z
		"/>
	<path class="st64" d="M417,155c-4.5,8.8-9.8,10.6-16.1,5.4c-3.2-2.6-3.4-6.2-2.5-9.3c1.1-3.8,3.7-7,8.5-7.2c4-0.2,6.5,1.8,8.3,5
		c0.7,1.3,1.3,2.7,1.9,4C417.7,153.7,417,154.3,417,155z"/>
	<path class="st65" d="M330,149c2.4-0.1,2.2-2.9,4.3-3.7c4.9-2,9.9-1.1,12.8,3c2.6,3.7,2.4,8-0.5,10.8c-4,4-7.2,6.3-13.6,0.9
		c-1.7-0.1-3-0.8-3.7-2.4c-0.4-1-0.5-2.1-0.6-3.1C328.7,152.6,328.7,150.6,330,149z"/>
	<path class="st63" d="M386.1,161c-2-5.3-1.6-10.7,0.1-16c1.6-0.8,3.2-0.7,4.8-0.1c0.7,0.7,1.4,1.4,2.1,2.2c0.7,4,0.7,7.9,0,11.9
		c-0.8,0.4-1,1.2-1.1,2C390,161.8,388,161.8,386.1,161z"/>
	<path class="st66" d="M330,155c0,1,0,2,0,3c0.1,2.9-3.2,1.3-4,3c-0.3,0.3-0.7,0.7-1,1c-3.1-2.3-0.8-5.6-1.5-8.4
		c0.3-1,1-1.2,1.8-1.2C327.1,153,328.6,153.9,330,155z"/>
	<path class="st67" d="M417,155c-1.1-0.7-0.1-1.3,0-2c1.7-1.2,3.3-4.1,5,0c-1.3,1.3-1.3,2.7,0,4c0.7,0,1.3,0,2,0c0,0.7,0,1.3,0,2
		C420.2,160.1,418.5,157.8,417,155z"/>
	<path class="st68" d="M324,153c0.4,3-1,6.2,1,9c-1.4,2.2-0.9,4.6-1,6.9c-2,0.5-1.2-1.5-1.9-2.2c0-1.2,0.1-2.4,0.1-3.6
		c1.8-6,0.2-12.1,0.9-18.1c1.7,1.8,0.6,4,0.9,6C324.6,151.7,324.6,152.4,324,153z"/>
	<path class="st69" d="M391,145c-1.6,0-3.2,0-4.8,0.1c-5.5-0.1-10.9-0.2-16.4-0.3c-1.7,0-3,0.3-2.9,2.3c-0.6-0.7-1.2-1.4-1.8-2.1
		c-0.3-0.2-0.4-0.4-0.3-0.6c0.1-0.2,0.2-0.3,0.3-0.3C373.7,144.3,382.4,142.8,391,145z"/>
	<path class="st70" d="M322.1,166.8c0.6,0.7,1.3,1.5,1.9,2.2c0,0.6,0.1,1.2,0.1,1.8c0.8,1.1,1.1,2.4,0.6,3.7c-0.2,0.5-0.6,0.9-1,1.2
		c-1.3,0.5-2.6,0.5-3.7-0.6C321.6,172.5,322.4,169.8,322.1,166.8z"/>
	<path class="st37" d="M330,155c-1.6-0.2-3.7,0.7-4-2c0.3-1,1.4-1.3,2-2c0-1.3,0.7-2,2-2C330,151,330,153,330,155z"/>
	<path class="st71" d="M324,175c0-1.4,0.1-2.8,0.1-4.3c1.6,0.3,3.1,0.6,4,2.1c0.6,0.8,0.5,1.6,0,2.4
		C326.6,176.1,325.3,176.2,324,175z"/>
	<path class="st72" d="M326,161c0-2.8,3.2-1.3,4-3c1,0.7,2,1.4,3,2C330.9,161.9,328.3,160.6,326,161z"/>
	<path class="st73" d="M354,147.1c0,4.3,0,8.6,0,12.8C352.4,155.6,352.4,151.3,354,147.1z"/>
	<path class="st74" d="M356,161c3.6-0.7,7.8,1.8,10.8-2c0.1,1,0.2,1.9,0.3,2.9C363.5,161.6,359.6,163.1,356,161z"/>
	<path class="st75" d="M393,159c0-4,0-7.9,0-11.9C394.6,151.1,394.5,155,393,159z"/>
	<path class="st53" d="M328,175c0-0.7,0-1.4,0.1-2.1c1,0.1,2,0.1,2.9,0.2c0.3,0.6,0.7,1.3,1,1.9l0,0c-0.8,0.9-1.9,1.4-3.1,1.4
		C328.1,176.3,327.7,175.9,328,175z"/>
	<path class="st53" d="M424.4,162.1c0.2-0.1,0.5-0.1,0.7,0c0.3,0.2,0.4,0.3,0.3,0.5s-0.2,0.3-0.2,0.3c3.4,2.5-1.2,3.3-1.1,5.1
		C424.1,166,424.3,164.1,424.4,162.1z"/>
	<path class="st76" d="M365,144.1c0,0.3,0,0.6,0,0.8c-3,0-5.9,0-8.9,0C358.9,143,362,144.4,365,144.1z"/>
	<path class="st77" d="M422,157c-1.4-0.1-2-0.9-1.9-2.2c0.1-1.2,0.9-1.6,1.9-1.8C422,154.3,422,155.7,422,157z"/>
	<path class="st78" d="M328,151c0,1.3-0.7,2-2,2c-0.7,0-1.3,0-2,0c0-0.7,0-1.3,0-2C325.3,151,326.7,151,328,151z"/>
	<path class="st79" d="M324,141c0-1-0.1-2.1-0.1-3.1c0.3-0.3,0.6-0.7,0.9-1C326.4,138.6,327,140.1,324,141z"/>
	<path class="st80" d="M386.1,161c2,0,4,0,5.9,0c-1.9,1.9-4.1,0.7-6.2,0.9C385.8,161.6,385.9,161.3,386.1,161z"/>
	<path class="st81" d="M425.1,162.9c-0.1-0.3-0.1-0.5-0.1-0.8c1.1-0.1,2.2,0.1,2.9-1.1c6.6,0,13.3,0,19.9,0c0,0.5,0,1,0,1.5
		c0,0.4-0.1,0.8-0.1,1.3C440.3,162,432.7,163.2,425.1,162.9z"/>
	<path class="st82" d="M418,177c-1.6-0.5-3-1.2-0.2-1.9c1.7-0.4,1.7-1,1.1-2.2l0,0c1.5,0.1,2.9,0.4,4.2-0.6c1.1-0.8,2.4-1.9,3.2,0
		c0.6,1.4-0.3,2.4-2,1.6c-0.4,1.1-0.8,2.1-1.2,3.2C421.3,178.4,419.6,178.2,418,177z"/>
	<path class="st83" d="M418,177c1.7,0,3.3,0,5,0c1.4,3.4-1.6,1.6-2.6,2C418.5,179.9,417.8,178.9,418,177z"/>
	<path class="st53" d="M447.9,166c0,1.7,0,3.3,0,5C444.1,169.4,446.9,167.7,447.9,166z"/>
	<path class="st44" d="M328,175c0.3,0.3,0.7,0.7,1,1c0.3,0.2,0.5,0.4,0.3,0.7c-0.1,0.2-0.2,0.3-0.3,0.3c-2.4,3.2-5.9,1.6-9,2
		c-1.1,0-2.3,0.2-3-1c0.3-0.3,0.7-0.7,1-1c1.6-1.8,4.4-0.1,6-2l0,0C325.3,175,326.7,175,328,175z"/>
	<path class="st84" d="M329,177c0-0.3,0-0.7,0-1c1-0.3,2-0.7,3-1C331.9,177,330.5,177,329,177z"/>
	<path class="st85" d="M298.8,163.9c2.9-2,6.1-0.6,9.2-0.9c0,1.5,0.2,3-0.2,4.4c-0.5,2-2.9,2.1-3.2,0.8
		C303.9,164.6,300.8,165.2,298.8,163.9z"/>
	<path class="st47" d="M324,175c-1,3.6-4,1.3-6,2c0-1.3,0.7-2,2-2C321.4,175,322.7,175,324,175z"/>
	<path class="st86" d="M319.7,168.3c-1.5-0.4-2.8-0.8-3-2.5c0-0.2,0.8-0.6,1.2-0.6C320,165.1,320.2,166.4,319.7,168.3z"/>
	<path class="st87" d="M300,161c0.3-0.3,0.7-0.7,1-1c3.9-1.2,7.8,0.1,11.7-0.3c1.8-0.2,3.8,0.1,3.8-2.7c0.3-2.4-0.4-4.8,0.2-7.2
		c1.5-1.9,3.2-2.3,5.2-0.8c0,4,0,8,0,12C314.6,162.4,307.3,162.8,300,161z"/>
	<path class="st57" d="M321.9,149c-1.7-0.1-3.4,0.1-4.9,1c-0.4-0.2-0.7-0.4-1-0.7c-0.5-0.4-1-0.7-1.5-0.9c-3.1-0.3-6.1-0.3-9.2,0.1
		c-0.6,0.2-1.2,0.5-1.8,0.7c-0.4,0.2-0.8,0.2-1.3,0l-0.3-0.3c0-1.3,0-2.5,0-3.8c6.6,0,13.2-0.1,19.8-0.1
		C321.8,146.4,321.8,147.7,321.9,149z"/>
	<path class="st88" d="M302.3,149.3c0.2,0,0.5-0.1,0.7-0.2c4.7-1.5,9.3-2,13.9,0.2c-0.1,0.2,0,0.5,0.1,0.7c1.1,2.2,0.8,4.6,1,6.9
		c-1.6,3-7,4.5-12.2,3.3c-1.8-0.4-3.7-0.7-3.7-3.2C302.2,154.4,302.2,151.9,302.3,149.3z"/>
	<path class="st48" d="M302.1,157c4.3,3.9,11.5,3.9,15.8-0.1c0.4,2.8-0.4,4.4-3.7,4.2c-4.4-0.3-8.9,0.5-13.2-1
		C300.4,158.6,299.5,157.2,302.1,157z"/>
	<path class="st89" d="M426,149c5.8,0,11.6,0,17.3,0c0,0.7,0,1.3,0,2c-5.1,0-10.2,0-15.3,0C426.7,151,426,150.3,426,149z"/>
	<path class="st62" d="M414,153.7c-0.1,3.9-3.2,6.7-7.2,6.5c-3.7-0.2-6.4-3.1-6.3-6.8c0.1-3.9,3.3-6.8,7.1-6.5
		C411.4,147,414.1,149.9,414,153.7z"/>
	<path class="st62" d="M346.1,153.4c0,4-2.8,6.8-6.8,6.8c-3.8-0.1-6.5-2.7-6.5-6.6c0-3.8,2.7-6.6,6.3-6.8
		C343.1,146.6,346.1,149.4,346.1,153.4z"/>
	<path class="st87" d="M316.9,149.3c-4.6-0.9-9.3-0.4-13.9-0.2c0.3-0.4,0.7-0.7,1-1.1c4-0.8,8-0.8,12,0
		C316.3,148.4,316.6,148.9,316.9,149.3z"/>
	<path class="st54" d="M316,148c-4,0-8,0-12,0C308,146.4,312,146.4,316,148z"/>
</g>
</svg>
